M48
;DRILL file {KiCad (2017-08-19 revision a20cce075)-master} date Sat Aug 26 17:51:58 2017
;FORMAT={-:-/ absolute / metric / decimal}
FMAT,2
METRIC,TZ
T1C0.400
T2C0.650
T3C1.000
T4C3.100
%
G90
G05
M71
T1
X99.7Y-108.7
X100.2Y-91.1
X100.2Y-106.5
X100.75Y-96.5
X101.3Y-105.
X101.4Y-104.1
X101.979Y-91.754
X102.25Y-96.5
X102.35Y-99.2
X102.55Y-101.25
X102.566Y-97.25
X103.Y-94.3
X103.177Y-102.399
X103.25Y-105.87
X103.403Y-93.514
X104.04Y-108.1
X104.5Y-101.25
X104.5Y-104.5
X105.8Y-105.5
X106.934Y-105.791
X107.3Y-97.015
X107.494Y-104.357
X107.5Y-99.75
X107.698Y-93.515
X108.1Y-97.015
X108.401Y-94.019
X108.7Y-104.5
X109.7Y-100.6
X109.8Y-95.8
X110.1Y-93.5
X110.1Y-101.5
X110.4Y-109.6
X111.5Y-108.1
X112.326Y-99.526
X112.5Y-102.4
X113.6Y-106.1
X116.5Y-94.4
T2
X97.75Y-92.98
X97.75Y-94.25
T3
X96.25Y-104.17
X96.25Y-106.71
X96.25Y-109.25
X96.25Y-111.79
T4
X96.Y-99.75
X116.Y-99.75
T0
M30
