G04 #@! TF.GenerationSoftware,KiCad,Pcbnew,(2017-08-19 revision a20cce075)-master*
G04 #@! TF.CreationDate,2017-08-26T17:51:18+03:00*
G04 #@! TF.ProjectId,distance-sensor-vl53l0x,64697374616E63652D73656E736F722D,rev?*
G04 #@! TF.SameCoordinates,Original*
G04 #@! TF.FileFunction,Copper,L1,Top,Signal*
G04 #@! TF.FilePolarity,Positive*
%FSLAX46Y46*%
G04 Gerber Fmt 4.6, Leading zero omitted, Abs format (unit mm)*
G04 Created by KiCad (PCBNEW (2017-08-19 revision a20cce075)-master) date Sat Aug 26 17:51:18 2017*
%MOMM*%
%LPD*%
G01*
G04 APERTURE LIST*
%ADD10R,0.800000X0.750000*%
%ADD11C,3.300000*%
%ADD12R,0.750000X0.800000*%
%ADD13R,1.250000X1.000000*%
%ADD14R,0.800000X0.800000*%
%ADD15R,1.000000X1.000000*%
%ADD16O,1.000000X1.000000*%
%ADD17R,0.450000X1.380000*%
%ADD18R,1.475000X2.100000*%
%ADD19R,2.375000X1.900000*%
%ADD20R,1.175000X1.900000*%
%ADD21R,0.500000X0.900000*%
%ADD22R,0.900000X0.500000*%
%ADD23R,0.450000X1.450000*%
%ADD24R,0.650000X1.060000*%
%ADD25R,0.500000X0.500000*%
%ADD26R,1.700000X1.700000*%
%ADD27O,1.700000X1.700000*%
%ADD28C,0.600000*%
%ADD29C,0.250000*%
%ADD30C,0.200000*%
%ADD31C,0.300000*%
%ADD32C,0.160000*%
%ADD33C,0.125000*%
%ADD34C,0.254000*%
G04 APERTURE END LIST*
D10*
X112800000Y-108800000D03*
X114300000Y-108800000D03*
D11*
X116000000Y-99750000D03*
X96000000Y-99750000D03*
D12*
X100000000Y-99750000D03*
X100000000Y-98250000D03*
X101250000Y-92500000D03*
X101250000Y-91000000D03*
D10*
X108250000Y-100000000D03*
X109750000Y-100000000D03*
X112850000Y-103250000D03*
X114350000Y-103250000D03*
D12*
X103750000Y-102250000D03*
X103750000Y-103750000D03*
D13*
X108500000Y-101500000D03*
X108500000Y-103500000D03*
D14*
X112450000Y-93500000D03*
X114050000Y-93500000D03*
D15*
X97750000Y-94250000D03*
D16*
X97750000Y-92980000D03*
D17*
X104790000Y-109840000D03*
X105440000Y-109840000D03*
X106090000Y-109840000D03*
X106740000Y-109840000D03*
X107390000Y-109840000D03*
D18*
X103627500Y-110200000D03*
X108552500Y-110200000D03*
D19*
X103180000Y-112500000D03*
X109000000Y-112500000D03*
D20*
X105250000Y-112500000D03*
X106930000Y-112500000D03*
D21*
X97000000Y-96266000D03*
X98500000Y-96266000D03*
D22*
X101500000Y-98250000D03*
X101500000Y-99750000D03*
X107000000Y-106500000D03*
X107000000Y-108000000D03*
X105250000Y-106500000D03*
X105250000Y-108000000D03*
D21*
X114000000Y-92000000D03*
X112500000Y-92000000D03*
D22*
X110750000Y-96000000D03*
X110750000Y-94500000D03*
X110750000Y-93250000D03*
X110750000Y-91750000D03*
X100750000Y-103500000D03*
X100750000Y-102000000D03*
X102250000Y-103500000D03*
X102250000Y-102000000D03*
D23*
X103075000Y-98200000D03*
X103725000Y-98200000D03*
X104375000Y-98200000D03*
X105025000Y-98200000D03*
X105675000Y-98200000D03*
X106325000Y-98200000D03*
X106975000Y-98200000D03*
X107625000Y-98200000D03*
X108275000Y-98200000D03*
X108925000Y-98200000D03*
X108925000Y-92300000D03*
X108275000Y-92300000D03*
X107625000Y-92300000D03*
X106975000Y-92300000D03*
X106325000Y-92300000D03*
X105675000Y-92300000D03*
X105025000Y-92300000D03*
X104375000Y-92300000D03*
X103725000Y-92300000D03*
X103075000Y-92300000D03*
D24*
X112650000Y-107100000D03*
X113600000Y-107100000D03*
X114550000Y-107100000D03*
X114550000Y-104900000D03*
X112650000Y-104900000D03*
D25*
X106800000Y-100400000D03*
X106800000Y-101200000D03*
X106800000Y-102000000D03*
X106800000Y-103600000D03*
X106800000Y-102800000D03*
X106000000Y-103600000D03*
X105200000Y-100400000D03*
X105200000Y-101200000D03*
X105200000Y-102000000D03*
X105200000Y-102800000D03*
X105200000Y-103600000D03*
X106000000Y-100400000D03*
D26*
X96250000Y-111790000D03*
D27*
X96250000Y-109250000D03*
X96250000Y-106710000D03*
X96250000Y-104170000D03*
D21*
X100250000Y-107500000D03*
X98750000Y-107500000D03*
X100250000Y-109250000D03*
X98750000Y-109250000D03*
D28*
X100750000Y-96500000D03*
X102250000Y-96500000D03*
X100200000Y-91100000D03*
X108700000Y-104500000D03*
X113600000Y-106100000D03*
X110400000Y-109600000D03*
X101300000Y-105000000D03*
X109700000Y-100600000D03*
X103250000Y-105869998D03*
X111500000Y-108100000D03*
X104040000Y-108100000D03*
X116500000Y-94400000D03*
X112500000Y-102400000D03*
X102350027Y-99200032D03*
X101978555Y-91753555D03*
X107500000Y-99750000D03*
X112325728Y-99525728D03*
X110100000Y-101500000D03*
X110100000Y-93500000D03*
X109800000Y-95800000D03*
X103177439Y-102398539D03*
X101400000Y-104100000D03*
X102565500Y-97249979D03*
X103403005Y-93514277D03*
X100200000Y-106500000D03*
X108100000Y-97015000D03*
X99700000Y-108700000D03*
X107300000Y-97015000D03*
X103000000Y-94300000D03*
X102550000Y-101250000D03*
X104500000Y-101250000D03*
X107494203Y-104357253D03*
X108400843Y-94019283D03*
X107697862Y-93514823D03*
X104500000Y-104500000D03*
X106934000Y-105791000D03*
X105800000Y-105500000D03*
D29*
X101500000Y-99750000D02*
X100700000Y-99750000D01*
X100700000Y-99750000D02*
X100000000Y-99750000D01*
D30*
X100750000Y-97650000D02*
X100700000Y-97700000D01*
X100700000Y-97700000D02*
X100700000Y-99750000D01*
X100750000Y-96500000D02*
X100750000Y-97650000D01*
X100575000Y-99750000D02*
X100000000Y-99750000D01*
X105025000Y-98200000D02*
X105025000Y-97275000D01*
X105025000Y-97275000D02*
X104250000Y-96500000D01*
X104250000Y-96500000D02*
X102250000Y-96500000D01*
D31*
X108700000Y-104500000D02*
X108700000Y-103700000D01*
X108700000Y-103700000D02*
X108500000Y-103500000D01*
X113700000Y-104575000D02*
X114350000Y-103925000D01*
X114350000Y-103925000D02*
X114350000Y-103250000D01*
X113700000Y-105575736D02*
X113700000Y-104575000D01*
X113600000Y-106100000D02*
X113600000Y-105675736D01*
X113600000Y-105675736D02*
X113700000Y-105575736D01*
X113600000Y-106100000D02*
X113600000Y-107100000D01*
X108552500Y-110200000D02*
X109800000Y-110200000D01*
X109800000Y-110200000D02*
X110400000Y-109600000D01*
X114300000Y-108800000D02*
X113600000Y-108100000D01*
X113600000Y-108100000D02*
X113600000Y-107100000D01*
D32*
X103627500Y-110200000D02*
X103627500Y-111410000D01*
X103627500Y-111410000D02*
X103180000Y-111857500D01*
X103180000Y-111857500D02*
X103180000Y-112500000D01*
X103180000Y-112500000D02*
X104527500Y-112500000D01*
X104527500Y-112500000D02*
X105250000Y-112500000D01*
X106930000Y-112500000D02*
X106182500Y-112500000D01*
X106182500Y-112500000D02*
X105250000Y-112500000D01*
X109000000Y-112500000D02*
X107652500Y-112500000D01*
X107652500Y-112500000D02*
X106930000Y-112500000D01*
X108552500Y-110200000D02*
X108552500Y-111410000D01*
X108552500Y-111410000D02*
X109000000Y-111857500D01*
X109000000Y-111857500D02*
X109000000Y-112500000D01*
X107390000Y-109840000D02*
X108192500Y-109840000D01*
X108192500Y-109840000D02*
X108552500Y-110200000D01*
D30*
X99800000Y-101000000D02*
X99800000Y-103790002D01*
X99800000Y-103790002D02*
X100059999Y-104050001D01*
X100059999Y-104050001D02*
X100350001Y-104050001D01*
X100350001Y-104050001D02*
X101300000Y-105000000D01*
X99324999Y-100524999D02*
X99800000Y-101000000D01*
X100000000Y-98250000D02*
X99425000Y-98250000D01*
X99425000Y-98250000D02*
X99324999Y-98350001D01*
X99324999Y-98350001D02*
X99324999Y-100524999D01*
X109700000Y-100600000D02*
X109700000Y-100050000D01*
X109700000Y-100050000D02*
X109750000Y-100000000D01*
X109775000Y-100000000D02*
X109750000Y-100000000D01*
X110700002Y-100925002D02*
X109775000Y-100000000D01*
X109325000Y-103500000D02*
X110700002Y-102124998D01*
X108500000Y-103500000D02*
X109325000Y-103500000D01*
X110700002Y-102124998D02*
X110700002Y-100925002D01*
D29*
X106325000Y-91325000D02*
X106325000Y-92300000D01*
X105350000Y-90350000D02*
X106325000Y-91325000D01*
X102525000Y-90350000D02*
X105350000Y-90350000D01*
X101875000Y-91000000D02*
X102525000Y-90350000D01*
X101250000Y-91000000D02*
X101875000Y-91000000D01*
X100000000Y-98250000D02*
X98500000Y-96750000D01*
X108500000Y-103500000D02*
X107800000Y-102800000D01*
X107800000Y-102800000D02*
X106800000Y-102800000D01*
X106000000Y-103600000D02*
X106000000Y-103100000D01*
X106000000Y-103100000D02*
X106300000Y-102800000D01*
X106300000Y-102800000D02*
X106800000Y-102800000D01*
X106800000Y-102800000D02*
X106800000Y-102000000D01*
X106800000Y-102000000D02*
X106800000Y-101200000D01*
X106800000Y-101200000D02*
X106300000Y-101200000D01*
X106300000Y-101200000D02*
X106000000Y-100900000D01*
X106000000Y-100900000D02*
X106000000Y-100400000D01*
X103750000Y-103750000D02*
X103750000Y-105250000D01*
X103250000Y-105869998D02*
X103250000Y-105750000D01*
X103250000Y-105750000D02*
X103750000Y-105250000D01*
D31*
X113025000Y-109700000D02*
X114445002Y-109700000D01*
X114445002Y-109700000D02*
X115175000Y-108970002D01*
X115175000Y-108970002D02*
X115175000Y-107930000D01*
X115175000Y-107930000D02*
X114550000Y-107305000D01*
X114550000Y-107305000D02*
X114550000Y-107100000D01*
X112800000Y-108800000D02*
X112800000Y-109475000D01*
X112800000Y-109475000D02*
X113025000Y-109700000D01*
X112800000Y-108800000D02*
X112800000Y-107250000D01*
X112800000Y-107250000D02*
X112650000Y-107100000D01*
X111500000Y-108100000D02*
X111650000Y-108100000D01*
X111650000Y-108100000D02*
X112650000Y-107100000D01*
X104790000Y-109840000D02*
X104790000Y-108850000D01*
X104790000Y-108850000D02*
X104040000Y-108100000D01*
D32*
X108500000Y-101500000D02*
X108500000Y-100250000D01*
X108500000Y-100250000D02*
X108250000Y-100000000D01*
D31*
X112325728Y-98474272D02*
X116400000Y-94400000D01*
X116400000Y-94400000D02*
X116500000Y-94400000D01*
X112325728Y-99525728D02*
X112325728Y-98474272D01*
X112850000Y-103250000D02*
X112850000Y-102750000D01*
X112850000Y-102750000D02*
X112500000Y-102400000D01*
X112650000Y-104900000D02*
X112650000Y-103450000D01*
X112650000Y-103450000D02*
X112850000Y-103250000D01*
D30*
X112450000Y-93500000D02*
X111000000Y-93500000D01*
X111000000Y-93500000D02*
X110750000Y-93250000D01*
X101250000Y-92500000D02*
X98230000Y-92500000D01*
X98230000Y-92500000D02*
X97750000Y-92980000D01*
D29*
X102350027Y-98900027D02*
X102350027Y-99200032D01*
X101500000Y-98250000D02*
X101700000Y-98250000D01*
X101700000Y-98250000D02*
X102350027Y-98900027D01*
X102475001Y-91249999D02*
X101978555Y-91753555D01*
X101978555Y-91753555D02*
X101250000Y-92475000D01*
X101500000Y-98250000D02*
X101500000Y-92750000D01*
X101500000Y-92750000D02*
X101250000Y-92500000D01*
X107475001Y-99250001D02*
X105750001Y-99250001D01*
X105675000Y-92300000D02*
X105675000Y-91325000D01*
X105675000Y-91325000D02*
X105599999Y-91249999D01*
X101250000Y-92475000D02*
X101250000Y-92500000D01*
X105599999Y-91249999D02*
X102475001Y-91249999D01*
X108225000Y-100000000D02*
X107975000Y-99750000D01*
X107975000Y-99750000D02*
X107475001Y-99250001D01*
X107500000Y-99750000D02*
X107975000Y-99750000D01*
X108250000Y-100000000D02*
X108225000Y-100000000D01*
X105675000Y-99175000D02*
X105675000Y-98200000D01*
X105750001Y-99250001D02*
X105675000Y-99175000D01*
D30*
X112325728Y-98025728D02*
X112325728Y-99525728D01*
X110750000Y-96450000D02*
X112325728Y-98025728D01*
X110750000Y-96000000D02*
X110750000Y-96450000D01*
X108500000Y-101500000D02*
X110100000Y-101500000D01*
X110100000Y-93500000D02*
X110500000Y-93500000D01*
X110500000Y-93500000D02*
X110750000Y-93250000D01*
X110000000Y-96000000D02*
X109800000Y-95800000D01*
X110750000Y-96000000D02*
X110000000Y-96000000D01*
X103177439Y-102398539D02*
X103601461Y-102398539D01*
X103601461Y-102398539D02*
X103750000Y-102250000D01*
X100750000Y-103500000D02*
X100800000Y-103500000D01*
X100800000Y-103500000D02*
X101400000Y-104100000D01*
X100750000Y-103500000D02*
X102250000Y-103500000D01*
D29*
X104424996Y-100400000D02*
X105200000Y-100400000D01*
X103750000Y-101074996D02*
X104424996Y-100400000D01*
X103750000Y-102250000D02*
X103750000Y-101074996D01*
X108500000Y-101500000D02*
X108625000Y-101500000D01*
X106800000Y-100400000D02*
X107400000Y-100400000D01*
X107400000Y-100400000D02*
X108500000Y-101500000D01*
X106800000Y-100400000D02*
X106800000Y-99900000D01*
X106800000Y-99900000D02*
X106724999Y-99824999D01*
X106724999Y-99824999D02*
X105275001Y-99824999D01*
X105275001Y-99824999D02*
X105200000Y-99900000D01*
X105200000Y-99900000D02*
X105200000Y-100400000D01*
D30*
X114050000Y-93500000D02*
X114050000Y-92050000D01*
X114050000Y-92050000D02*
X114000000Y-92000000D01*
D29*
X97750000Y-94270000D02*
X97000000Y-95020000D01*
X97000000Y-95020000D02*
X97000000Y-96266000D01*
X103075000Y-98200000D02*
X102600000Y-98200000D01*
X102565500Y-98165500D02*
X102565500Y-97249979D01*
X102600000Y-98200000D02*
X102565500Y-98165500D01*
D32*
X105250000Y-108750000D02*
X105440000Y-108940000D01*
X105440000Y-108940000D02*
X105440000Y-109840000D01*
X105250000Y-108000000D02*
X105250000Y-108750000D01*
X107000000Y-108000000D02*
X106800000Y-108000000D01*
X106800000Y-108000000D02*
X106090000Y-108710000D01*
X106090000Y-108710000D02*
X106090000Y-109840000D01*
D30*
X103403005Y-93514277D02*
X103725000Y-93192282D01*
X103725000Y-93192282D02*
X103725000Y-92300000D01*
X109949999Y-95199999D02*
X109000844Y-94250844D01*
X109000844Y-94250844D02*
X109000844Y-93300844D01*
X109000844Y-93300844D02*
X108925000Y-93225000D01*
X108925000Y-93225000D02*
X108925000Y-92300000D01*
X112750000Y-95250000D02*
X112699999Y-95199999D01*
X112699999Y-95199999D02*
X109949999Y-95199999D01*
X113150001Y-94849999D02*
X112750000Y-95250000D01*
X112500000Y-92000000D02*
X112500000Y-92200000D01*
X112500000Y-92200000D02*
X113150001Y-92850001D01*
X113150001Y-92850001D02*
X113150001Y-94849999D01*
D32*
X96250000Y-109250000D02*
X98750000Y-109250000D01*
X96250000Y-106710000D02*
X98160000Y-106710000D01*
X98160000Y-106710000D02*
X98750000Y-107300000D01*
X98750000Y-107300000D02*
X98750000Y-107500000D01*
X100200000Y-106500000D02*
X100200000Y-107450000D01*
X100200000Y-107450000D02*
X100250000Y-107500000D01*
X108275000Y-98200000D02*
X108275000Y-97190000D01*
X108275000Y-97190000D02*
X108100000Y-97015000D01*
X99700000Y-108700000D02*
X100250000Y-109250000D01*
X107625000Y-98200000D02*
X107625000Y-97340000D01*
X107625000Y-97340000D02*
X107300000Y-97015000D01*
D30*
X102700001Y-94000001D02*
X102700001Y-92674999D01*
X103000000Y-94300000D02*
X102700001Y-94000001D01*
X102700001Y-92674999D02*
X103075000Y-92300000D01*
X104750000Y-102000000D02*
X105200000Y-102000000D01*
X104649999Y-102100001D02*
X104750000Y-102000000D01*
X102990002Y-103000000D02*
X104315002Y-103000000D01*
X104649999Y-102665003D02*
X104649999Y-102100001D01*
X104315002Y-103000000D02*
X104649999Y-102665003D01*
X102940001Y-102949999D02*
X102990002Y-103000000D01*
X100950000Y-102000000D02*
X101899999Y-102949999D01*
X101899999Y-102949999D02*
X102940001Y-102949999D01*
X100750000Y-102000000D02*
X100950000Y-102000000D01*
X103725000Y-98200000D02*
X103725000Y-99225000D01*
X103725000Y-99225000D02*
X100950000Y-102000000D01*
X102250000Y-101550000D02*
X102550000Y-101250000D01*
X102550000Y-101250000D02*
X104375000Y-99425000D01*
X104375000Y-99425000D02*
X104375000Y-98200000D01*
X105200000Y-101200000D02*
X104550000Y-101200000D01*
X102250000Y-102000000D02*
X102250000Y-101550000D01*
X104550000Y-101200000D02*
X104500000Y-101250000D01*
X107549999Y-98124999D02*
X107625000Y-98200000D01*
X107107253Y-104357253D02*
X107494203Y-104357253D01*
X106800000Y-103600000D02*
X106800000Y-104050000D01*
X106800000Y-104050000D02*
X107107253Y-104357253D01*
X108400843Y-93476579D02*
X108400843Y-94019283D01*
X108275000Y-93350736D02*
X108400843Y-93476579D01*
X108275000Y-92300000D02*
X108275000Y-93350736D01*
D29*
X108275000Y-91325000D02*
X108275000Y-92300000D01*
X109474999Y-93099999D02*
X109750000Y-92824998D01*
X108600000Y-91000000D02*
X108275000Y-91325000D01*
X109750000Y-91589998D02*
X109160002Y-91000000D01*
X109474999Y-93800001D02*
X109474999Y-93099999D01*
X110174998Y-94500000D02*
X109474999Y-93800001D01*
X109160002Y-91000000D02*
X108600000Y-91000000D01*
X110750000Y-94500000D02*
X110174998Y-94500000D01*
X109750000Y-92824998D02*
X109750000Y-91589998D01*
D30*
X107625000Y-93441961D02*
X107697862Y-93514823D01*
X107625000Y-92300000D02*
X107625000Y-93441961D01*
X104500000Y-104500000D02*
X104500000Y-104300000D01*
X104500000Y-104300000D02*
X105200000Y-103600000D01*
D29*
X107625000Y-91238589D02*
X107625000Y-92300000D01*
X108313600Y-90549989D02*
X107625000Y-91238589D01*
X109349989Y-90549989D02*
X108313600Y-90549989D01*
X110550000Y-91750000D02*
X109349989Y-90549989D01*
X110750000Y-91750000D02*
X110550000Y-91750000D01*
D32*
X106934000Y-105791000D02*
X107000000Y-106500000D01*
X106097500Y-105436832D02*
X105863168Y-105436832D01*
D33*
X104375000Y-93387501D02*
X104547500Y-93560001D01*
X104375000Y-92300000D02*
X104375000Y-93387501D01*
X104547500Y-93560001D02*
X104547500Y-94763168D01*
X104547500Y-94763168D02*
X106436832Y-96652500D01*
X106436832Y-96652500D02*
X108936832Y-96652500D01*
X108936832Y-96652500D02*
X111597500Y-99313168D01*
X111597500Y-99313168D02*
X111597500Y-102936832D01*
X111597500Y-102936832D02*
X109545397Y-104988935D01*
X109545397Y-104988935D02*
X106545397Y-104988935D01*
X106545397Y-104988935D02*
X106097500Y-105436832D01*
D32*
X105863168Y-105436832D02*
X105800000Y-105500000D01*
X106400000Y-105565668D02*
X106400000Y-105600000D01*
X106400000Y-105600000D02*
X105500000Y-106500000D01*
X105500000Y-106500000D02*
X105250000Y-106500000D01*
D33*
X106671733Y-105293935D02*
X106400000Y-105565668D01*
X106400000Y-105565668D02*
X106402500Y-105563168D01*
X105025000Y-93387501D02*
X104852500Y-93560001D01*
X105025000Y-92300000D02*
X105025000Y-93387501D01*
X104852500Y-93560001D02*
X104852500Y-94636832D01*
X104852500Y-94636832D02*
X106563168Y-96347500D01*
X106563168Y-96347500D02*
X109063168Y-96347500D01*
X109063168Y-96347500D02*
X111902500Y-99186832D01*
X111902500Y-99186832D02*
X111902500Y-103063168D01*
X111902500Y-103063168D02*
X109671733Y-105293935D01*
X109671733Y-105293935D02*
X106671733Y-105293935D01*
D34*
G36*
X100240000Y-90714250D02*
X100398750Y-90873000D01*
X101123000Y-90873000D01*
X101123000Y-90853000D01*
X101377000Y-90853000D01*
X101377000Y-90873000D01*
X101397000Y-90873000D01*
X101397000Y-91012958D01*
X101262724Y-91147000D01*
X101123000Y-91147000D01*
X101123000Y-91127000D01*
X100398750Y-91127000D01*
X100240000Y-91285750D01*
X100240000Y-91526309D01*
X100336673Y-91759698D01*
X100337873Y-91760898D01*
X100335132Y-91765000D01*
X98230000Y-91765000D01*
X97948728Y-91820949D01*
X97880502Y-91866536D01*
X97772236Y-91845000D01*
X97727764Y-91845000D01*
X97293418Y-91931397D01*
X96925198Y-92177434D01*
X96679161Y-92545654D01*
X96592764Y-92980000D01*
X96679161Y-93414346D01*
X96694865Y-93437849D01*
X96651843Y-93502235D01*
X96602560Y-93750000D01*
X96602560Y-94342638D01*
X96462599Y-94482599D01*
X96297852Y-94729161D01*
X96240000Y-95020000D01*
X96240000Y-95436300D01*
X96151843Y-95568235D01*
X96102560Y-95816000D01*
X96102560Y-96716000D01*
X96151843Y-96963765D01*
X96292191Y-97173809D01*
X96502235Y-97314157D01*
X96750000Y-97363440D01*
X97250000Y-97363440D01*
X97497765Y-97314157D01*
X97707809Y-97173809D01*
X97748654Y-97112680D01*
X97890302Y-97254327D01*
X98123691Y-97351000D01*
X98216250Y-97351000D01*
X98375000Y-97192250D01*
X98375000Y-96393000D01*
X98625000Y-96393000D01*
X98625000Y-97192250D01*
X98783750Y-97351000D01*
X98876309Y-97351000D01*
X99109698Y-97254327D01*
X99288327Y-97075699D01*
X99385000Y-96842310D01*
X99385000Y-96551750D01*
X99226250Y-96393000D01*
X98625000Y-96393000D01*
X98375000Y-96393000D01*
X98353000Y-96393000D01*
X98353000Y-96139000D01*
X98375000Y-96139000D01*
X98375000Y-96119000D01*
X98625000Y-96119000D01*
X98625000Y-96139000D01*
X99226250Y-96139000D01*
X99385000Y-95980250D01*
X99385000Y-95689690D01*
X99288327Y-95456301D01*
X99109698Y-95277673D01*
X98876309Y-95181000D01*
X98783750Y-95181000D01*
X98627002Y-95337748D01*
X98627002Y-95261803D01*
X98707809Y-95207809D01*
X98848157Y-94997765D01*
X98897440Y-94750000D01*
X98897440Y-93750000D01*
X98848157Y-93502235D01*
X98805135Y-93437849D01*
X98820839Y-93414346D01*
X98856513Y-93235000D01*
X100335132Y-93235000D01*
X100417191Y-93357809D01*
X100627235Y-93498157D01*
X100740000Y-93520587D01*
X100740000Y-95564991D01*
X100564833Y-95564838D01*
X100221057Y-95706883D01*
X99957808Y-95969673D01*
X99815162Y-96313201D01*
X99814838Y-96685167D01*
X99956883Y-97028943D01*
X100015000Y-97087162D01*
X100015000Y-97448635D01*
X99965000Y-97700000D01*
X99965000Y-98397000D01*
X99873000Y-98397000D01*
X99873000Y-98377000D01*
X99148750Y-98377000D01*
X98990000Y-98535750D01*
X98990000Y-98776309D01*
X99086673Y-99009698D01*
X99087873Y-99010898D01*
X99026843Y-99102235D01*
X98977560Y-99350000D01*
X98977560Y-100150000D01*
X99026843Y-100397765D01*
X99167191Y-100607809D01*
X99377235Y-100748157D01*
X99625000Y-100797440D01*
X100375000Y-100797440D01*
X100622765Y-100748157D01*
X100832809Y-100607809D01*
X100834915Y-100604657D01*
X101050000Y-100647440D01*
X101263114Y-100647440D01*
X100807994Y-101102560D01*
X100300000Y-101102560D01*
X100052235Y-101151843D01*
X99842191Y-101292191D01*
X99701843Y-101502235D01*
X99652560Y-101750000D01*
X99652560Y-102250000D01*
X99701843Y-102497765D01*
X99842191Y-102707809D01*
X99905334Y-102750000D01*
X99842191Y-102792191D01*
X99701843Y-103002235D01*
X99652560Y-103250000D01*
X99652560Y-103750000D01*
X99701843Y-103997765D01*
X99842191Y-104207809D01*
X100052235Y-104348157D01*
X100300000Y-104397440D01*
X100511228Y-104397440D01*
X100606883Y-104628943D01*
X100869673Y-104892192D01*
X101213201Y-105034838D01*
X101585167Y-105035162D01*
X101928943Y-104893117D01*
X102192192Y-104630327D01*
X102288896Y-104397440D01*
X102700000Y-104397440D01*
X102783310Y-104380869D01*
X102836673Y-104509698D01*
X103015301Y-104688327D01*
X103248690Y-104785000D01*
X103464250Y-104785000D01*
X103564839Y-104684411D01*
X103564838Y-104685167D01*
X103706883Y-105028943D01*
X103969673Y-105292192D01*
X104313201Y-105434838D01*
X104685167Y-105435162D01*
X104865121Y-105360807D01*
X104864910Y-105602560D01*
X104800000Y-105602560D01*
X104552235Y-105651843D01*
X104342191Y-105792191D01*
X104201843Y-106002235D01*
X104152560Y-106250000D01*
X104152560Y-106750000D01*
X104201843Y-106997765D01*
X104342191Y-107207809D01*
X104363018Y-107221725D01*
X104226799Y-107165162D01*
X103854833Y-107164838D01*
X103511057Y-107306883D01*
X103247808Y-107569673D01*
X103105162Y-107913201D01*
X103104838Y-108285167D01*
X103199803Y-108515000D01*
X102763690Y-108515000D01*
X102530301Y-108611673D01*
X102351673Y-108790302D01*
X102255000Y-109023691D01*
X102255000Y-109914250D01*
X102413750Y-110073000D01*
X103500500Y-110073000D01*
X103500500Y-110053000D01*
X103754500Y-110053000D01*
X103754500Y-110073000D01*
X103774500Y-110073000D01*
X103774500Y-110327000D01*
X103754500Y-110327000D01*
X103754500Y-110347000D01*
X103500500Y-110347000D01*
X103500500Y-110327000D01*
X102413750Y-110327000D01*
X102255000Y-110485750D01*
X102255000Y-110915000D01*
X101866190Y-110915000D01*
X101632801Y-111011673D01*
X101454173Y-111190302D01*
X101357500Y-111423691D01*
X101357500Y-112214250D01*
X101516250Y-112373000D01*
X103053000Y-112373000D01*
X103053000Y-112353000D01*
X103307000Y-112353000D01*
X103307000Y-112373000D01*
X105123000Y-112373000D01*
X105123000Y-112353000D01*
X105377000Y-112353000D01*
X105377000Y-112373000D01*
X106803000Y-112373000D01*
X106803000Y-112353000D01*
X107057000Y-112353000D01*
X107057000Y-112373000D01*
X108873000Y-112373000D01*
X108873000Y-112353000D01*
X109127000Y-112353000D01*
X109127000Y-112373000D01*
X110663750Y-112373000D01*
X110822500Y-112214250D01*
X110822500Y-111423691D01*
X110725827Y-111190302D01*
X110547199Y-111011673D01*
X110313810Y-110915000D01*
X109925000Y-110915000D01*
X109925000Y-110485750D01*
X109766250Y-110327000D01*
X108679500Y-110327000D01*
X108679500Y-110347000D01*
X108425500Y-110347000D01*
X108425500Y-110327000D01*
X108405500Y-110327000D01*
X108405500Y-110073000D01*
X108425500Y-110073000D01*
X108425500Y-108673750D01*
X108679500Y-108673750D01*
X108679500Y-110073000D01*
X109766250Y-110073000D01*
X109925000Y-109914250D01*
X109925000Y-109023691D01*
X109828327Y-108790302D01*
X109649699Y-108611673D01*
X109416310Y-108515000D01*
X108838250Y-108515000D01*
X108679500Y-108673750D01*
X108425500Y-108673750D01*
X108266750Y-108515000D01*
X108036641Y-108515000D01*
X108048157Y-108497765D01*
X108097440Y-108250000D01*
X108097440Y-107750000D01*
X108048157Y-107502235D01*
X107907809Y-107292191D01*
X107844666Y-107250000D01*
X107907809Y-107207809D01*
X108048157Y-106997765D01*
X108097440Y-106750000D01*
X108097440Y-106250000D01*
X108048157Y-106002235D01*
X108040941Y-105991435D01*
X109671733Y-105991435D01*
X109938655Y-105938341D01*
X110164940Y-105787142D01*
X111701267Y-104250815D01*
X111677560Y-104370000D01*
X111677560Y-105430000D01*
X111726843Y-105677765D01*
X111867191Y-105887809D01*
X112035095Y-106000000D01*
X111867191Y-106112191D01*
X111726843Y-106322235D01*
X111677560Y-106570000D01*
X111677560Y-106962282D01*
X111474865Y-107164977D01*
X111314833Y-107164838D01*
X110971057Y-107306883D01*
X110707808Y-107569673D01*
X110565162Y-107913201D01*
X110564838Y-108285167D01*
X110706883Y-108628943D01*
X110969673Y-108892192D01*
X111313201Y-109034838D01*
X111685167Y-109035162D01*
X111752560Y-109007316D01*
X111752560Y-109175000D01*
X111801843Y-109422765D01*
X111942191Y-109632809D01*
X112062362Y-109713106D01*
X112074755Y-109775407D01*
X112244921Y-110030079D01*
X112469921Y-110255079D01*
X112724593Y-110425245D01*
X113025000Y-110485000D01*
X114445002Y-110485000D01*
X114745409Y-110425245D01*
X115000081Y-110255079D01*
X115730079Y-109525081D01*
X115900245Y-109270409D01*
X115960000Y-108970002D01*
X115960000Y-107930000D01*
X115900245Y-107629594D01*
X115730079Y-107374921D01*
X115730076Y-107374919D01*
X115522440Y-107167283D01*
X115522440Y-106570000D01*
X115473157Y-106322235D01*
X115332809Y-106112191D01*
X115164905Y-106000000D01*
X115332809Y-105887809D01*
X115473157Y-105677765D01*
X115522440Y-105430000D01*
X115522440Y-104370000D01*
X115473157Y-104122235D01*
X115332809Y-103912191D01*
X115321493Y-103904630D01*
X115385000Y-103751310D01*
X115385000Y-103535750D01*
X115226250Y-103377000D01*
X114477000Y-103377000D01*
X114477000Y-103397000D01*
X114223000Y-103397000D01*
X114223000Y-103377000D01*
X114203000Y-103377000D01*
X114203000Y-103123000D01*
X114223000Y-103123000D01*
X114223000Y-102398750D01*
X114477000Y-102398750D01*
X114477000Y-103123000D01*
X115226250Y-103123000D01*
X115385000Y-102964250D01*
X115385000Y-102748690D01*
X115288327Y-102515301D01*
X115109698Y-102336673D01*
X114876309Y-102240000D01*
X114635750Y-102240000D01*
X114477000Y-102398750D01*
X114223000Y-102398750D01*
X114064250Y-102240000D01*
X113823691Y-102240000D01*
X113590302Y-102336673D01*
X113589102Y-102337873D01*
X113497765Y-102276843D01*
X113454001Y-102268138D01*
X113435140Y-102239911D01*
X113435162Y-102214833D01*
X113293117Y-101871057D01*
X113030327Y-101607808D01*
X112686799Y-101465162D01*
X112600000Y-101465086D01*
X112600000Y-100424073D01*
X112854671Y-100318845D01*
X113117920Y-100056055D01*
X113260566Y-99712527D01*
X113260890Y-99340561D01*
X113118845Y-98996785D01*
X113110728Y-98988654D01*
X113110728Y-98799430D01*
X116575092Y-95335066D01*
X116685167Y-95335162D01*
X117028943Y-95193117D01*
X117290000Y-94932515D01*
X117290000Y-97811493D01*
X116456509Y-97465397D01*
X115547479Y-97464604D01*
X114707342Y-97811742D01*
X114064001Y-98453961D01*
X113715397Y-99293491D01*
X113714604Y-100202521D01*
X114061742Y-101042658D01*
X114703961Y-101685999D01*
X115543491Y-102034603D01*
X116452521Y-102035396D01*
X117290000Y-101689356D01*
X117290000Y-113290000D01*
X110822500Y-113290000D01*
X110822500Y-112785750D01*
X110663750Y-112627000D01*
X109127000Y-112627000D01*
X109127000Y-112647000D01*
X108873000Y-112647000D01*
X108873000Y-112627000D01*
X107057000Y-112627000D01*
X107057000Y-112647000D01*
X106803000Y-112647000D01*
X106803000Y-112627000D01*
X105377000Y-112627000D01*
X105377000Y-112647000D01*
X105123000Y-112647000D01*
X105123000Y-112627000D01*
X103307000Y-112627000D01*
X103307000Y-112647000D01*
X103053000Y-112647000D01*
X103053000Y-112627000D01*
X101516250Y-112627000D01*
X101357500Y-112785750D01*
X101357500Y-113290000D01*
X94710000Y-113290000D01*
X94710000Y-106710000D01*
X94735907Y-106710000D01*
X94848946Y-107278285D01*
X95170853Y-107760054D01*
X95500026Y-107980000D01*
X95170853Y-108199946D01*
X94848946Y-108681715D01*
X94735907Y-109250000D01*
X94848946Y-109818285D01*
X95170853Y-110300054D01*
X95214777Y-110329403D01*
X95152235Y-110341843D01*
X94942191Y-110482191D01*
X94801843Y-110692235D01*
X94752560Y-110940000D01*
X94752560Y-112640000D01*
X94801843Y-112887765D01*
X94942191Y-113097809D01*
X95152235Y-113238157D01*
X95400000Y-113287440D01*
X97100000Y-113287440D01*
X97347765Y-113238157D01*
X97557809Y-113097809D01*
X97698157Y-112887765D01*
X97747440Y-112640000D01*
X97747440Y-110940000D01*
X97698157Y-110692235D01*
X97557809Y-110482191D01*
X97347765Y-110341843D01*
X97285223Y-110329403D01*
X97329147Y-110300054D01*
X97553022Y-109965000D01*
X97913359Y-109965000D01*
X98042191Y-110157809D01*
X98252235Y-110298157D01*
X98500000Y-110347440D01*
X99000000Y-110347440D01*
X99247765Y-110298157D01*
X99457809Y-110157809D01*
X99500000Y-110094666D01*
X99542191Y-110157809D01*
X99752235Y-110298157D01*
X100000000Y-110347440D01*
X100500000Y-110347440D01*
X100747765Y-110298157D01*
X100957809Y-110157809D01*
X101098157Y-109947765D01*
X101147440Y-109700000D01*
X101147440Y-108800000D01*
X101098157Y-108552235D01*
X100979731Y-108375000D01*
X101098157Y-108197765D01*
X101147440Y-107950000D01*
X101147440Y-107050000D01*
X101098157Y-106802235D01*
X101091217Y-106791849D01*
X101134838Y-106686799D01*
X101135162Y-106314833D01*
X100993117Y-105971057D01*
X100730327Y-105707808D01*
X100386799Y-105565162D01*
X100014833Y-105564838D01*
X99671057Y-105706883D01*
X99407808Y-105969673D01*
X99265162Y-106313201D01*
X99265031Y-106463380D01*
X99247765Y-106451843D01*
X99000000Y-106402560D01*
X98863722Y-106402560D01*
X98665581Y-106204419D01*
X98433619Y-106049426D01*
X98160000Y-105995000D01*
X97553022Y-105995000D01*
X97329147Y-105659946D01*
X96988447Y-105432298D01*
X97131358Y-105365183D01*
X97521645Y-104936924D01*
X97691476Y-104526890D01*
X97570155Y-104297000D01*
X96377000Y-104297000D01*
X96377000Y-104317000D01*
X96123000Y-104317000D01*
X96123000Y-104297000D01*
X94929845Y-104297000D01*
X94808524Y-104526890D01*
X94978355Y-104936924D01*
X95368642Y-105365183D01*
X95511553Y-105432298D01*
X95170853Y-105659946D01*
X94848946Y-106141715D01*
X94735907Y-106710000D01*
X94710000Y-106710000D01*
X94710000Y-103813110D01*
X94808524Y-103813110D01*
X94929845Y-104043000D01*
X96123000Y-104043000D01*
X96123000Y-102849181D01*
X96377000Y-102849181D01*
X96377000Y-104043000D01*
X97570155Y-104043000D01*
X97691476Y-103813110D01*
X97521645Y-103403076D01*
X97131358Y-102974817D01*
X96606892Y-102728514D01*
X96377000Y-102849181D01*
X96123000Y-102849181D01*
X95893108Y-102728514D01*
X95368642Y-102974817D01*
X94978355Y-103403076D01*
X94808524Y-103813110D01*
X94710000Y-103813110D01*
X94710000Y-101688507D01*
X95543491Y-102034603D01*
X96452521Y-102035396D01*
X97292658Y-101688258D01*
X97935999Y-101046039D01*
X98284603Y-100206509D01*
X98285396Y-99297479D01*
X97938258Y-98457342D01*
X97296039Y-97814001D01*
X97078549Y-97723691D01*
X98990000Y-97723691D01*
X98990000Y-97964250D01*
X99148750Y-98123000D01*
X99873000Y-98123000D01*
X99873000Y-97373750D01*
X99714250Y-97215000D01*
X99498690Y-97215000D01*
X99265301Y-97311673D01*
X99086673Y-97490302D01*
X98990000Y-97723691D01*
X97078549Y-97723691D01*
X96456509Y-97465397D01*
X95547479Y-97464604D01*
X94710000Y-97810644D01*
X94710000Y-90710000D01*
X100240000Y-90710000D01*
X100240000Y-90714250D01*
X100240000Y-90714250D01*
G37*
X100240000Y-90714250D02*
X100398750Y-90873000D01*
X101123000Y-90873000D01*
X101123000Y-90853000D01*
X101377000Y-90853000D01*
X101377000Y-90873000D01*
X101397000Y-90873000D01*
X101397000Y-91012958D01*
X101262724Y-91147000D01*
X101123000Y-91147000D01*
X101123000Y-91127000D01*
X100398750Y-91127000D01*
X100240000Y-91285750D01*
X100240000Y-91526309D01*
X100336673Y-91759698D01*
X100337873Y-91760898D01*
X100335132Y-91765000D01*
X98230000Y-91765000D01*
X97948728Y-91820949D01*
X97880502Y-91866536D01*
X97772236Y-91845000D01*
X97727764Y-91845000D01*
X97293418Y-91931397D01*
X96925198Y-92177434D01*
X96679161Y-92545654D01*
X96592764Y-92980000D01*
X96679161Y-93414346D01*
X96694865Y-93437849D01*
X96651843Y-93502235D01*
X96602560Y-93750000D01*
X96602560Y-94342638D01*
X96462599Y-94482599D01*
X96297852Y-94729161D01*
X96240000Y-95020000D01*
X96240000Y-95436300D01*
X96151843Y-95568235D01*
X96102560Y-95816000D01*
X96102560Y-96716000D01*
X96151843Y-96963765D01*
X96292191Y-97173809D01*
X96502235Y-97314157D01*
X96750000Y-97363440D01*
X97250000Y-97363440D01*
X97497765Y-97314157D01*
X97707809Y-97173809D01*
X97748654Y-97112680D01*
X97890302Y-97254327D01*
X98123691Y-97351000D01*
X98216250Y-97351000D01*
X98375000Y-97192250D01*
X98375000Y-96393000D01*
X98625000Y-96393000D01*
X98625000Y-97192250D01*
X98783750Y-97351000D01*
X98876309Y-97351000D01*
X99109698Y-97254327D01*
X99288327Y-97075699D01*
X99385000Y-96842310D01*
X99385000Y-96551750D01*
X99226250Y-96393000D01*
X98625000Y-96393000D01*
X98375000Y-96393000D01*
X98353000Y-96393000D01*
X98353000Y-96139000D01*
X98375000Y-96139000D01*
X98375000Y-96119000D01*
X98625000Y-96119000D01*
X98625000Y-96139000D01*
X99226250Y-96139000D01*
X99385000Y-95980250D01*
X99385000Y-95689690D01*
X99288327Y-95456301D01*
X99109698Y-95277673D01*
X98876309Y-95181000D01*
X98783750Y-95181000D01*
X98627002Y-95337748D01*
X98627002Y-95261803D01*
X98707809Y-95207809D01*
X98848157Y-94997765D01*
X98897440Y-94750000D01*
X98897440Y-93750000D01*
X98848157Y-93502235D01*
X98805135Y-93437849D01*
X98820839Y-93414346D01*
X98856513Y-93235000D01*
X100335132Y-93235000D01*
X100417191Y-93357809D01*
X100627235Y-93498157D01*
X100740000Y-93520587D01*
X100740000Y-95564991D01*
X100564833Y-95564838D01*
X100221057Y-95706883D01*
X99957808Y-95969673D01*
X99815162Y-96313201D01*
X99814838Y-96685167D01*
X99956883Y-97028943D01*
X100015000Y-97087162D01*
X100015000Y-97448635D01*
X99965000Y-97700000D01*
X99965000Y-98397000D01*
X99873000Y-98397000D01*
X99873000Y-98377000D01*
X99148750Y-98377000D01*
X98990000Y-98535750D01*
X98990000Y-98776309D01*
X99086673Y-99009698D01*
X99087873Y-99010898D01*
X99026843Y-99102235D01*
X98977560Y-99350000D01*
X98977560Y-100150000D01*
X99026843Y-100397765D01*
X99167191Y-100607809D01*
X99377235Y-100748157D01*
X99625000Y-100797440D01*
X100375000Y-100797440D01*
X100622765Y-100748157D01*
X100832809Y-100607809D01*
X100834915Y-100604657D01*
X101050000Y-100647440D01*
X101263114Y-100647440D01*
X100807994Y-101102560D01*
X100300000Y-101102560D01*
X100052235Y-101151843D01*
X99842191Y-101292191D01*
X99701843Y-101502235D01*
X99652560Y-101750000D01*
X99652560Y-102250000D01*
X99701843Y-102497765D01*
X99842191Y-102707809D01*
X99905334Y-102750000D01*
X99842191Y-102792191D01*
X99701843Y-103002235D01*
X99652560Y-103250000D01*
X99652560Y-103750000D01*
X99701843Y-103997765D01*
X99842191Y-104207809D01*
X100052235Y-104348157D01*
X100300000Y-104397440D01*
X100511228Y-104397440D01*
X100606883Y-104628943D01*
X100869673Y-104892192D01*
X101213201Y-105034838D01*
X101585167Y-105035162D01*
X101928943Y-104893117D01*
X102192192Y-104630327D01*
X102288896Y-104397440D01*
X102700000Y-104397440D01*
X102783310Y-104380869D01*
X102836673Y-104509698D01*
X103015301Y-104688327D01*
X103248690Y-104785000D01*
X103464250Y-104785000D01*
X103564839Y-104684411D01*
X103564838Y-104685167D01*
X103706883Y-105028943D01*
X103969673Y-105292192D01*
X104313201Y-105434838D01*
X104685167Y-105435162D01*
X104865121Y-105360807D01*
X104864910Y-105602560D01*
X104800000Y-105602560D01*
X104552235Y-105651843D01*
X104342191Y-105792191D01*
X104201843Y-106002235D01*
X104152560Y-106250000D01*
X104152560Y-106750000D01*
X104201843Y-106997765D01*
X104342191Y-107207809D01*
X104363018Y-107221725D01*
X104226799Y-107165162D01*
X103854833Y-107164838D01*
X103511057Y-107306883D01*
X103247808Y-107569673D01*
X103105162Y-107913201D01*
X103104838Y-108285167D01*
X103199803Y-108515000D01*
X102763690Y-108515000D01*
X102530301Y-108611673D01*
X102351673Y-108790302D01*
X102255000Y-109023691D01*
X102255000Y-109914250D01*
X102413750Y-110073000D01*
X103500500Y-110073000D01*
X103500500Y-110053000D01*
X103754500Y-110053000D01*
X103754500Y-110073000D01*
X103774500Y-110073000D01*
X103774500Y-110327000D01*
X103754500Y-110327000D01*
X103754500Y-110347000D01*
X103500500Y-110347000D01*
X103500500Y-110327000D01*
X102413750Y-110327000D01*
X102255000Y-110485750D01*
X102255000Y-110915000D01*
X101866190Y-110915000D01*
X101632801Y-111011673D01*
X101454173Y-111190302D01*
X101357500Y-111423691D01*
X101357500Y-112214250D01*
X101516250Y-112373000D01*
X103053000Y-112373000D01*
X103053000Y-112353000D01*
X103307000Y-112353000D01*
X103307000Y-112373000D01*
X105123000Y-112373000D01*
X105123000Y-112353000D01*
X105377000Y-112353000D01*
X105377000Y-112373000D01*
X106803000Y-112373000D01*
X106803000Y-112353000D01*
X107057000Y-112353000D01*
X107057000Y-112373000D01*
X108873000Y-112373000D01*
X108873000Y-112353000D01*
X109127000Y-112353000D01*
X109127000Y-112373000D01*
X110663750Y-112373000D01*
X110822500Y-112214250D01*
X110822500Y-111423691D01*
X110725827Y-111190302D01*
X110547199Y-111011673D01*
X110313810Y-110915000D01*
X109925000Y-110915000D01*
X109925000Y-110485750D01*
X109766250Y-110327000D01*
X108679500Y-110327000D01*
X108679500Y-110347000D01*
X108425500Y-110347000D01*
X108425500Y-110327000D01*
X108405500Y-110327000D01*
X108405500Y-110073000D01*
X108425500Y-110073000D01*
X108425500Y-108673750D01*
X108679500Y-108673750D01*
X108679500Y-110073000D01*
X109766250Y-110073000D01*
X109925000Y-109914250D01*
X109925000Y-109023691D01*
X109828327Y-108790302D01*
X109649699Y-108611673D01*
X109416310Y-108515000D01*
X108838250Y-108515000D01*
X108679500Y-108673750D01*
X108425500Y-108673750D01*
X108266750Y-108515000D01*
X108036641Y-108515000D01*
X108048157Y-108497765D01*
X108097440Y-108250000D01*
X108097440Y-107750000D01*
X108048157Y-107502235D01*
X107907809Y-107292191D01*
X107844666Y-107250000D01*
X107907809Y-107207809D01*
X108048157Y-106997765D01*
X108097440Y-106750000D01*
X108097440Y-106250000D01*
X108048157Y-106002235D01*
X108040941Y-105991435D01*
X109671733Y-105991435D01*
X109938655Y-105938341D01*
X110164940Y-105787142D01*
X111701267Y-104250815D01*
X111677560Y-104370000D01*
X111677560Y-105430000D01*
X111726843Y-105677765D01*
X111867191Y-105887809D01*
X112035095Y-106000000D01*
X111867191Y-106112191D01*
X111726843Y-106322235D01*
X111677560Y-106570000D01*
X111677560Y-106962282D01*
X111474865Y-107164977D01*
X111314833Y-107164838D01*
X110971057Y-107306883D01*
X110707808Y-107569673D01*
X110565162Y-107913201D01*
X110564838Y-108285167D01*
X110706883Y-108628943D01*
X110969673Y-108892192D01*
X111313201Y-109034838D01*
X111685167Y-109035162D01*
X111752560Y-109007316D01*
X111752560Y-109175000D01*
X111801843Y-109422765D01*
X111942191Y-109632809D01*
X112062362Y-109713106D01*
X112074755Y-109775407D01*
X112244921Y-110030079D01*
X112469921Y-110255079D01*
X112724593Y-110425245D01*
X113025000Y-110485000D01*
X114445002Y-110485000D01*
X114745409Y-110425245D01*
X115000081Y-110255079D01*
X115730079Y-109525081D01*
X115900245Y-109270409D01*
X115960000Y-108970002D01*
X115960000Y-107930000D01*
X115900245Y-107629594D01*
X115730079Y-107374921D01*
X115730076Y-107374919D01*
X115522440Y-107167283D01*
X115522440Y-106570000D01*
X115473157Y-106322235D01*
X115332809Y-106112191D01*
X115164905Y-106000000D01*
X115332809Y-105887809D01*
X115473157Y-105677765D01*
X115522440Y-105430000D01*
X115522440Y-104370000D01*
X115473157Y-104122235D01*
X115332809Y-103912191D01*
X115321493Y-103904630D01*
X115385000Y-103751310D01*
X115385000Y-103535750D01*
X115226250Y-103377000D01*
X114477000Y-103377000D01*
X114477000Y-103397000D01*
X114223000Y-103397000D01*
X114223000Y-103377000D01*
X114203000Y-103377000D01*
X114203000Y-103123000D01*
X114223000Y-103123000D01*
X114223000Y-102398750D01*
X114477000Y-102398750D01*
X114477000Y-103123000D01*
X115226250Y-103123000D01*
X115385000Y-102964250D01*
X115385000Y-102748690D01*
X115288327Y-102515301D01*
X115109698Y-102336673D01*
X114876309Y-102240000D01*
X114635750Y-102240000D01*
X114477000Y-102398750D01*
X114223000Y-102398750D01*
X114064250Y-102240000D01*
X113823691Y-102240000D01*
X113590302Y-102336673D01*
X113589102Y-102337873D01*
X113497765Y-102276843D01*
X113454001Y-102268138D01*
X113435140Y-102239911D01*
X113435162Y-102214833D01*
X113293117Y-101871057D01*
X113030327Y-101607808D01*
X112686799Y-101465162D01*
X112600000Y-101465086D01*
X112600000Y-100424073D01*
X112854671Y-100318845D01*
X113117920Y-100056055D01*
X113260566Y-99712527D01*
X113260890Y-99340561D01*
X113118845Y-98996785D01*
X113110728Y-98988654D01*
X113110728Y-98799430D01*
X116575092Y-95335066D01*
X116685167Y-95335162D01*
X117028943Y-95193117D01*
X117290000Y-94932515D01*
X117290000Y-97811493D01*
X116456509Y-97465397D01*
X115547479Y-97464604D01*
X114707342Y-97811742D01*
X114064001Y-98453961D01*
X113715397Y-99293491D01*
X113714604Y-100202521D01*
X114061742Y-101042658D01*
X114703961Y-101685999D01*
X115543491Y-102034603D01*
X116452521Y-102035396D01*
X117290000Y-101689356D01*
X117290000Y-113290000D01*
X110822500Y-113290000D01*
X110822500Y-112785750D01*
X110663750Y-112627000D01*
X109127000Y-112627000D01*
X109127000Y-112647000D01*
X108873000Y-112647000D01*
X108873000Y-112627000D01*
X107057000Y-112627000D01*
X107057000Y-112647000D01*
X106803000Y-112647000D01*
X106803000Y-112627000D01*
X105377000Y-112627000D01*
X105377000Y-112647000D01*
X105123000Y-112647000D01*
X105123000Y-112627000D01*
X103307000Y-112627000D01*
X103307000Y-112647000D01*
X103053000Y-112647000D01*
X103053000Y-112627000D01*
X101516250Y-112627000D01*
X101357500Y-112785750D01*
X101357500Y-113290000D01*
X94710000Y-113290000D01*
X94710000Y-106710000D01*
X94735907Y-106710000D01*
X94848946Y-107278285D01*
X95170853Y-107760054D01*
X95500026Y-107980000D01*
X95170853Y-108199946D01*
X94848946Y-108681715D01*
X94735907Y-109250000D01*
X94848946Y-109818285D01*
X95170853Y-110300054D01*
X95214777Y-110329403D01*
X95152235Y-110341843D01*
X94942191Y-110482191D01*
X94801843Y-110692235D01*
X94752560Y-110940000D01*
X94752560Y-112640000D01*
X94801843Y-112887765D01*
X94942191Y-113097809D01*
X95152235Y-113238157D01*
X95400000Y-113287440D01*
X97100000Y-113287440D01*
X97347765Y-113238157D01*
X97557809Y-113097809D01*
X97698157Y-112887765D01*
X97747440Y-112640000D01*
X97747440Y-110940000D01*
X97698157Y-110692235D01*
X97557809Y-110482191D01*
X97347765Y-110341843D01*
X97285223Y-110329403D01*
X97329147Y-110300054D01*
X97553022Y-109965000D01*
X97913359Y-109965000D01*
X98042191Y-110157809D01*
X98252235Y-110298157D01*
X98500000Y-110347440D01*
X99000000Y-110347440D01*
X99247765Y-110298157D01*
X99457809Y-110157809D01*
X99500000Y-110094666D01*
X99542191Y-110157809D01*
X99752235Y-110298157D01*
X100000000Y-110347440D01*
X100500000Y-110347440D01*
X100747765Y-110298157D01*
X100957809Y-110157809D01*
X101098157Y-109947765D01*
X101147440Y-109700000D01*
X101147440Y-108800000D01*
X101098157Y-108552235D01*
X100979731Y-108375000D01*
X101098157Y-108197765D01*
X101147440Y-107950000D01*
X101147440Y-107050000D01*
X101098157Y-106802235D01*
X101091217Y-106791849D01*
X101134838Y-106686799D01*
X101135162Y-106314833D01*
X100993117Y-105971057D01*
X100730327Y-105707808D01*
X100386799Y-105565162D01*
X100014833Y-105564838D01*
X99671057Y-105706883D01*
X99407808Y-105969673D01*
X99265162Y-106313201D01*
X99265031Y-106463380D01*
X99247765Y-106451843D01*
X99000000Y-106402560D01*
X98863722Y-106402560D01*
X98665581Y-106204419D01*
X98433619Y-106049426D01*
X98160000Y-105995000D01*
X97553022Y-105995000D01*
X97329147Y-105659946D01*
X96988447Y-105432298D01*
X97131358Y-105365183D01*
X97521645Y-104936924D01*
X97691476Y-104526890D01*
X97570155Y-104297000D01*
X96377000Y-104297000D01*
X96377000Y-104317000D01*
X96123000Y-104317000D01*
X96123000Y-104297000D01*
X94929845Y-104297000D01*
X94808524Y-104526890D01*
X94978355Y-104936924D01*
X95368642Y-105365183D01*
X95511553Y-105432298D01*
X95170853Y-105659946D01*
X94848946Y-106141715D01*
X94735907Y-106710000D01*
X94710000Y-106710000D01*
X94710000Y-103813110D01*
X94808524Y-103813110D01*
X94929845Y-104043000D01*
X96123000Y-104043000D01*
X96123000Y-102849181D01*
X96377000Y-102849181D01*
X96377000Y-104043000D01*
X97570155Y-104043000D01*
X97691476Y-103813110D01*
X97521645Y-103403076D01*
X97131358Y-102974817D01*
X96606892Y-102728514D01*
X96377000Y-102849181D01*
X96123000Y-102849181D01*
X95893108Y-102728514D01*
X95368642Y-102974817D01*
X94978355Y-103403076D01*
X94808524Y-103813110D01*
X94710000Y-103813110D01*
X94710000Y-101688507D01*
X95543491Y-102034603D01*
X96452521Y-102035396D01*
X97292658Y-101688258D01*
X97935999Y-101046039D01*
X98284603Y-100206509D01*
X98285396Y-99297479D01*
X97938258Y-98457342D01*
X97296039Y-97814001D01*
X97078549Y-97723691D01*
X98990000Y-97723691D01*
X98990000Y-97964250D01*
X99148750Y-98123000D01*
X99873000Y-98123000D01*
X99873000Y-97373750D01*
X99714250Y-97215000D01*
X99498690Y-97215000D01*
X99265301Y-97311673D01*
X99086673Y-97490302D01*
X98990000Y-97723691D01*
X97078549Y-97723691D01*
X96456509Y-97465397D01*
X95547479Y-97464604D01*
X94710000Y-97810644D01*
X94710000Y-90710000D01*
X100240000Y-90710000D01*
X100240000Y-90714250D01*
G36*
X114153000Y-108881844D02*
X114153000Y-108673000D01*
X114173000Y-108673000D01*
X114173000Y-108653000D01*
X114381844Y-108653000D01*
X114153000Y-108881844D01*
X114153000Y-108881844D01*
G37*
X114153000Y-108881844D02*
X114153000Y-108673000D01*
X114173000Y-108673000D01*
X114173000Y-108653000D01*
X114381844Y-108653000D01*
X114153000Y-108881844D01*
G36*
X113626843Y-105677765D02*
X113767191Y-105887809D01*
X113866551Y-105954199D01*
X113727000Y-106093750D01*
X113727000Y-106172341D01*
X113626843Y-106322235D01*
X113600000Y-106457185D01*
X113573157Y-106322235D01*
X113473000Y-106172341D01*
X113473000Y-106093750D01*
X113333449Y-105954199D01*
X113432809Y-105887809D01*
X113573157Y-105677765D01*
X113600000Y-105542815D01*
X113626843Y-105677765D01*
X113626843Y-105677765D01*
G37*
X113626843Y-105677765D02*
X113767191Y-105887809D01*
X113866551Y-105954199D01*
X113727000Y-106093750D01*
X113727000Y-106172341D01*
X113626843Y-106322235D01*
X113600000Y-106457185D01*
X113573157Y-106322235D01*
X113473000Y-106172341D01*
X113473000Y-106093750D01*
X113333449Y-105954199D01*
X113432809Y-105887809D01*
X113573157Y-105677765D01*
X113600000Y-105542815D01*
X113626843Y-105677765D01*
G36*
X103897000Y-103780811D02*
X103780608Y-103897000D01*
X103623000Y-103897000D01*
X103623000Y-103877000D01*
X103603000Y-103877000D01*
X103603000Y-103735000D01*
X103897000Y-103735000D01*
X103897000Y-103780811D01*
X103897000Y-103780811D01*
G37*
X103897000Y-103780811D02*
X103780608Y-103897000D01*
X103623000Y-103897000D01*
X103623000Y-103877000D01*
X103603000Y-103877000D01*
X103603000Y-103735000D01*
X103897000Y-103735000D01*
X103897000Y-103780811D01*
G36*
X110900000Y-102647918D02*
X109760000Y-103787918D01*
X109760000Y-103785750D01*
X109601250Y-103627000D01*
X108627000Y-103627000D01*
X108627000Y-103647000D01*
X108373000Y-103647000D01*
X108373000Y-103627000D01*
X108353000Y-103627000D01*
X108353000Y-103373000D01*
X108373000Y-103373000D01*
X108373000Y-103353000D01*
X108627000Y-103353000D01*
X108627000Y-103373000D01*
X109601250Y-103373000D01*
X109760000Y-103214250D01*
X109760000Y-102873691D01*
X109663327Y-102640302D01*
X109521680Y-102498654D01*
X109582809Y-102457809D01*
X109666583Y-102332433D01*
X109913201Y-102434838D01*
X110285167Y-102435162D01*
X110628943Y-102293117D01*
X110892192Y-102030327D01*
X110900000Y-102011523D01*
X110900000Y-102647918D01*
X110900000Y-102647918D01*
G37*
X110900000Y-102647918D02*
X109760000Y-103787918D01*
X109760000Y-103785750D01*
X109601250Y-103627000D01*
X108627000Y-103627000D01*
X108627000Y-103647000D01*
X108373000Y-103647000D01*
X108373000Y-103627000D01*
X108353000Y-103627000D01*
X108353000Y-103373000D01*
X108373000Y-103373000D01*
X108373000Y-103353000D01*
X108627000Y-103353000D01*
X108627000Y-103373000D01*
X109601250Y-103373000D01*
X109760000Y-103214250D01*
X109760000Y-102873691D01*
X109663327Y-102640302D01*
X109521680Y-102498654D01*
X109582809Y-102457809D01*
X109666583Y-102332433D01*
X109913201Y-102434838D01*
X110285167Y-102435162D01*
X110628943Y-102293117D01*
X110892192Y-102030327D01*
X110900000Y-102011523D01*
X110900000Y-102647918D01*
G36*
X106925000Y-101926250D02*
X106947000Y-101948250D01*
X106947000Y-102051750D01*
X106925000Y-102073750D01*
X106925000Y-102147000D01*
X106675000Y-102147000D01*
X106675000Y-102073750D01*
X106653000Y-102051750D01*
X106653000Y-101948250D01*
X106675000Y-101926250D01*
X106675000Y-101853000D01*
X106925000Y-101853000D01*
X106925000Y-101926250D01*
X106925000Y-101926250D01*
G37*
X106925000Y-101926250D02*
X106947000Y-101948250D01*
X106947000Y-102051750D01*
X106925000Y-102073750D01*
X106925000Y-102147000D01*
X106675000Y-102147000D01*
X106675000Y-102073750D01*
X106653000Y-102051750D01*
X106653000Y-101948250D01*
X106675000Y-101926250D01*
X106675000Y-101853000D01*
X106925000Y-101853000D01*
X106925000Y-101926250D01*
G36*
X110900000Y-99602082D02*
X110900000Y-100987715D01*
X110893117Y-100971057D01*
X110672735Y-100750290D01*
X110688327Y-100734699D01*
X110785000Y-100501310D01*
X110785000Y-100285750D01*
X110626250Y-100127000D01*
X109877000Y-100127000D01*
X109877000Y-100147000D01*
X109623000Y-100147000D01*
X109623000Y-100127000D01*
X109603000Y-100127000D01*
X109603000Y-99873000D01*
X109623000Y-99873000D01*
X109623000Y-99853000D01*
X109877000Y-99853000D01*
X109877000Y-99873000D01*
X110626250Y-99873000D01*
X110785000Y-99714250D01*
X110785000Y-99498690D01*
X110776792Y-99478874D01*
X110900000Y-99602082D01*
X110900000Y-99602082D01*
G37*
X110900000Y-99602082D02*
X110900000Y-100987715D01*
X110893117Y-100971057D01*
X110672735Y-100750290D01*
X110688327Y-100734699D01*
X110785000Y-100501310D01*
X110785000Y-100285750D01*
X110626250Y-100127000D01*
X109877000Y-100127000D01*
X109877000Y-100147000D01*
X109623000Y-100147000D01*
X109623000Y-100127000D01*
X109603000Y-100127000D01*
X109603000Y-99873000D01*
X109623000Y-99873000D01*
X109623000Y-99853000D01*
X109877000Y-99853000D01*
X109877000Y-99873000D01*
X110626250Y-99873000D01*
X110785000Y-99714250D01*
X110785000Y-99498690D01*
X110776792Y-99478874D01*
X110900000Y-99602082D01*
M02*
