  0
SECTION
  2
HEADER
  9
$ANGBASE
  50
0.0
  9
$ANGDIR
  70
  1
  9
$MEASUREMENT
  70
0
  0
ENDSEC
  0
SECTION
  2
TABLES
  0
TABLE
  2
LTYPE
  70
1
  0
LTYPE
  2
CONTINUOUS
  70
0
  3
Solid line
  72
65
  73
0
  40
0.0
  0
ENDTAB
  0
TABLE
  2
STYLE
  70
4
  0
STYLE
  2
KICAD
  70
0
  40
0
  41
1
  42
1
  50
0
  71
0
  3
isocp.shx
  0
STYLE
  2
KICADB
  70
0
  40
0
  41
1
  42
1
  50
0
  71
0
  3
isocp.shx
  0
STYLE
  2
KICADI
  70
0
  40
0
  41
1
  42
1
  50
15
  71
0
  3
isocp.shx
  0
STYLE
  2
KICADBI
  70
0
  40
0
  41
1
  42
1
  50
15
  71
0
  3
isocp.shx
  0
ENDTAB
  0
TABLE
  2
LAYER
  70
30
  0
LAYER
  2
BLACK
  70
0
  62
7
  6
CONTINUOUS
  0
LAYER
  2
GRAY1
  70
0
  62
251
  6
CONTINUOUS
  0
LAYER
  2
GRAY2
  70
0
  62
8
  6
CONTINUOUS
  0
LAYER
  2
GRAY3
  70
0
  62
9
  6
CONTINUOUS
  0
LAYER
  2
WHITE
  70
0
  62
7
  6
CONTINUOUS
  0
LAYER
  2
LYELLOW
  70
0
  62
51
  6
CONTINUOUS
  0
LAYER
  2
BLUE1
  70
0
  62
178
  6
CONTINUOUS
  0
LAYER
  2
GREEN1
  70
0
  62
98
  6
CONTINUOUS
  0
LAYER
  2
CYAN1
  70
0
  62
138
  6
CONTINUOUS
  0
LAYER
  2
RED1
  70
0
  62
18
  6
CONTINUOUS
  0
LAYER
  2
MAGENTA1
  70
0
  62
228
  6
CONTINUOUS
  0
LAYER
  2
BROWN1
  70
0
  62
58
  6
CONTINUOUS
  0
LAYER
  2
BLUE2
  70
0
  62
5
  6
CONTINUOUS
  0
LAYER
  2
GREEN2
  70
0
  62
3
  6
CONTINUOUS
  0
LAYER
  2
CYAN2
  70
0
  62
4
  6
CONTINUOUS
  0
LAYER
  2
RED2
  70
0
  62
1
  6
CONTINUOUS
  0
LAYER
  2
MAGENTA2
  70
0
  62
6
  6
CONTINUOUS
  0
LAYER
  2
BROWN2
  70
0
  62
54
  6
CONTINUOUS
  0
LAYER
  2
BLUE3
  70
0
  62
171
  6
CONTINUOUS
  0
LAYER
  2
GREEN3
  70
0
  62
91
  6
CONTINUOUS
  0
LAYER
  2
CYAN3
  70
0
  62
131
  6
CONTINUOUS
  0
LAYER
  2
RED3
  70
0
  62
11
  6
CONTINUOUS
  0
LAYER
  2
MAGENTA3
  70
0
  62
221
  6
CONTINUOUS
  0
LAYER
  2
YELLOW3
  70
0
  62
2
  6
CONTINUOUS
  0
LAYER
  2
BLUE4
  70
0
  62
5
  6
CONTINUOUS
  0
LAYER
  2
GREEN4
  70
0
  62
3
  6
CONTINUOUS
  0
LAYER
  2
CYAN4
  70
0
  62
4
  6
CONTINUOUS
  0
LAYER
  2
RED4
  70
0
  62
1
  6
CONTINUOUS
  0
LAYER
  2
MAGENTA4
  70
0
  62
6
  6
CONTINUOUS
  0
LAYER
  2
YELLOW4
  70
0
  62
2
  6
CONTINUOUS
  0
ENDTAB
  0
ENDSEC
  0
SECTION
  2
ENTITIES
0
LINE
8
BLACK
10
114.767
20
-113.45
11
113.593
21
-113.45
0
LINE
8
BLACK
10
113.593
20
-113.45
11
113.593
21
-111.55
0
LINE
8
BLACK
10
113.593
20
-111.55
11
114.767
21
-111.55
0
LINE
8
BLACK
10
114.767
20
-111.55
11
114.767
21
-113.45
0
LINE
8
BLACK
10
113.087
20
-113.45
11
111.912
21
-113.45
0
LINE
8
BLACK
10
111.912
20
-113.45
11
111.912
21
-111.55
0
LINE
8
BLACK
10
111.912
20
-111.55
11
113.087
21
-111.55
0
LINE
8
BLACK
10
113.087
20
-111.55
11
113.087
21
-113.45
0
LINE
8
BLACK
10
117.438
20
-113.45
11
115.062
21
-113.45
0
LINE
8
BLACK
10
115.062
20
-113.45
11
115.062
21
-111.55
0
LINE
8
BLACK
10
115.062
20
-111.55
11
117.438
21
-111.55
0
LINE
8
BLACK
10
117.438
20
-111.55
11
117.438
21
-113.45
0
LINE
8
BLACK
10
111.617
20
-113.45
11
109.242
21
-113.45
0
LINE
8
BLACK
10
109.242
20
-113.45
11
109.242
21
-111.55
0
LINE
8
BLACK
10
109.242
20
-111.55
11
111.617
21
-111.55
0
LINE
8
BLACK
10
111.617
20
-111.55
11
111.617
21
-113.45
0
LINE
8
BLACK
10
116.54
20
-111.25
11
115.065
21
-111.25
0
LINE
8
BLACK
10
115.065
20
-111.25
11
115.065
21
-109.15
0
LINE
8
BLACK
10
115.065
20
-109.15
11
116.54
21
-109.15
0
LINE
8
BLACK
10
116.54
20
-109.15
11
116.54
21
-111.25
0
LINE
8
BLACK
10
111.615
20
-111.25
11
110.14
21
-111.25
0
LINE
8
BLACK
10
110.14
20
-111.25
11
110.14
21
-109.15
0
LINE
8
BLACK
10
110.14
20
-109.15
11
111.615
21
-109.15
0
LINE
8
BLACK
10
111.615
20
-109.15
11
111.615
21
-111.25
0
LINE
8
BLACK
10
106.65
20
-111.125
11
105.85
21
-111.125
0
LINE
8
BLACK
10
105.85
20
-111.125
11
105.85
21
-110.375
0
LINE
8
BLACK
10
105.85
20
-110.375
11
106.65
21
-110.375
0
LINE
8
BLACK
10
106.65
20
-110.375
11
106.65
21
-111.125
0
LINE
8
BLACK
10
108.15
20
-111.125
11
107.35
21
-111.125
0
LINE
8
BLACK
10
107.35
20
-111.125
11
107.35
21
-110.375
0
LINE
8
BLACK
10
107.35
20
-110.375
11
108.15
21
-110.375
0
LINE
8
BLACK
10
108.15
20
-110.375
11
108.15
21
-111.125
0
LINE
8
BLACK
10
114.865
20
-110.53
11
114.415
21
-110.53
0
LINE
8
BLACK
10
114.415
20
-110.53
11
114.415
21
-109.15
0
LINE
8
BLACK
10
114.415
20
-109.15
11
114.865
21
-109.15
0
LINE
8
BLACK
10
114.865
20
-109.15
11
114.865
21
-110.53
0
LINE
8
BLACK
10
114.215
20
-110.53
11
113.765
21
-110.53
0
LINE
8
BLACK
10
113.765
20
-110.53
11
113.765
21
-109.15
0
LINE
8
BLACK
10
113.765
20
-109.15
11
114.215
21
-109.15
0
LINE
8
BLACK
10
114.215
20
-109.15
11
114.215
21
-110.53
0
LINE
8
BLACK
10
113.565
20
-110.53
11
113.115
21
-110.53
0
LINE
8
BLACK
10
113.115
20
-110.53
11
113.115
21
-109.15
0
LINE
8
BLACK
10
113.115
20
-109.15
11
113.565
21
-109.15
0
LINE
8
BLACK
10
113.565
20
-109.15
11
113.565
21
-110.53
0
LINE
8
BLACK
10
112.915
20
-110.53
11
112.465
21
-110.53
0
LINE
8
BLACK
10
112.465
20
-110.53
11
112.465
21
-109.15
0
LINE
8
BLACK
10
112.465
20
-109.15
11
112.915
21
-109.15
0
LINE
8
BLACK
10
112.915
20
-109.15
11
112.915
21
-110.53
0
LINE
8
BLACK
10
112.265
20
-110.53
11
111.815
21
-110.53
0
LINE
8
BLACK
10
111.815
20
-110.53
11
111.815
21
-109.15
0
LINE
8
BLACK
10
111.815
20
-109.15
11
112.265
21
-109.15
0
LINE
8
BLACK
10
112.265
20
-109.15
11
112.265
21
-110.53
0
LINE
8
BLACK
10
103.775
20
-109.63
11
103.125
21
-109.63
0
LINE
8
BLACK
10
103.125
20
-109.63
11
103.125
21
-108.57
0
LINE
8
BLACK
10
103.125
20
-108.57
11
103.775
21
-108.57
0
LINE
8
BLACK
10
103.775
20
-108.57
11
103.775
21
-109.63
0
LINE
8
BLACK
10
105.875
20
-109.63
11
105.225
21
-109.63
0
LINE
8
BLACK
10
105.225
20
-109.63
11
105.225
21
-108.57
0
LINE
8
BLACK
10
105.225
20
-108.57
11
105.875
21
-108.57
0
LINE
8
BLACK
10
105.875
20
-108.57
11
105.875
21
-109.63
0
LINE
8
BLACK
10
107.775
20
-109.63
11
107.125
21
-109.63
0
LINE
8
BLACK
10
107.125
20
-109.63
11
107.125
21
-108.57
0
LINE
8
BLACK
10
107.125
20
-108.57
11
107.775
21
-108.57
0
LINE
8
BLACK
10
107.775
20
-108.57
11
107.775
21
-109.63
0
LINE
8
BLACK
10
101.875
20
-109.63
11
101.225
21
-109.63
0
LINE
8
BLACK
10
101.225
20
-109.63
11
101.225
21
-108.57
0
LINE
8
BLACK
10
101.225
20
-108.57
11
101.875
21
-108.57
0
LINE
8
BLACK
10
101.875
20
-108.57
11
101.875
21
-109.63
0
LINE
8
BLACK
10
102.825
20
-109.63
11
102.175
21
-109.63
0
LINE
8
BLACK
10
102.175
20
-109.63
11
102.175
21
-108.57
0
LINE
8
BLACK
10
102.175
20
-108.57
11
102.825
21
-108.57
0
LINE
8
BLACK
10
102.825
20
-108.57
11
102.825
21
-109.63
0
LINE
8
BLACK
10
106.825
20
-109.63
11
106.175
21
-109.63
0
LINE
8
BLACK
10
106.175
20
-109.63
11
106.175
21
-108.57
0
LINE
8
BLACK
10
106.175
20
-108.57
11
106.825
21
-108.57
0
LINE
8
BLACK
10
106.825
20
-108.57
11
106.825
21
-109.63
0
LINE
8
BLACK
10
98.2
20
-109.5
11
97.3
21
-109.5
0
LINE
8
BLACK
10
97.3
20
-109.5
11
97.3
21
-109
0
LINE
8
BLACK
10
97.3
20
-109
11
98.2
21
-109
0
LINE
8
BLACK
10
98.2
20
-109
11
98.2
21
-109.5
0
LINE
8
BLACK
10
99.7
20
-109.5
11
98.8
21
-109.5
0
LINE
8
BLACK
10
98.8
20
-109.5
11
98.8
21
-109
0
LINE
8
BLACK
10
98.8
20
-109
11
99.7
21
-109
0
LINE
8
BLACK
10
99.7
20
-109
11
99.7
21
-109.5
0
LINE
8
BLACK
10
98.2
20
-108
11
97.3
21
-108
0
LINE
8
BLACK
10
97.3
20
-108
11
97.3
21
-107.5
0
LINE
8
BLACK
10
97.3
20
-107.5
11
98.2
21
-107.5
0
LINE
8
BLACK
10
98.2
20
-107.5
11
98.2
21
-108
0
LINE
8
BLACK
10
99.7
20
-108
11
98.8
21
-108
0
LINE
8
BLACK
10
98.8
20
-108
11
98.8
21
-107.5
0
LINE
8
BLACK
10
98.8
20
-107.5
11
99.7
21
-107.5
0
LINE
8
BLACK
10
99.7
20
-107.5
11
99.7
21
-108
0
LINE
8
BLACK
10
114.7
20
-108
11
113.8
21
-108
0
LINE
8
BLACK
10
113.8
20
-108
11
113.8
21
-107.5
0
LINE
8
BLACK
10
113.8
20
-107.5
11
114.7
21
-107.5
0
LINE
8
BLACK
10
114.7
20
-107.5
11
114.7
21
-108
0
LINE
8
BLACK
10
112.95
20
-108
11
112.05
21
-108
0
LINE
8
BLACK
10
112.05
20
-108
11
112.05
21
-107.5
0
LINE
8
BLACK
10
112.05
20
-107.5
11
112.95
21
-107.5
0
LINE
8
BLACK
10
112.95
20
-107.5
11
112.95
21
-108
0
LINE
8
BLACK
10
101.875
20
-107.43
11
101.225
21
-107.43
0
LINE
8
BLACK
10
101.225
20
-107.43
11
101.225
21
-106.37
0
LINE
8
BLACK
10
101.225
20
-106.37
11
101.875
21
-106.37
0
LINE
8
BLACK
10
101.875
20
-106.37
11
101.875
21
-107.43
0
LINE
8
BLACK
10
105.875
20
-107.43
11
105.225
21
-107.43
0
LINE
8
BLACK
10
105.225
20
-107.43
11
105.225
21
-106.37
0
LINE
8
BLACK
10
105.225
20
-106.37
11
105.875
21
-106.37
0
LINE
8
BLACK
10
105.875
20
-106.37
11
105.875
21
-107.43
0
LINE
8
BLACK
10
107.775
20
-107.43
11
107.125
21
-107.43
0
LINE
8
BLACK
10
107.125
20
-107.43
11
107.125
21
-106.37
0
LINE
8
BLACK
10
107.125
20
-106.37
11
107.775
21
-106.37
0
LINE
8
BLACK
10
107.775
20
-106.37
11
107.775
21
-107.43
0
LINE
8
BLACK
10
103.775
20
-107.43
11
103.125
21
-107.43
0
LINE
8
BLACK
10
103.125
20
-107.43
11
103.125
21
-106.37
0
LINE
8
BLACK
10
103.125
20
-106.37
11
103.775
21
-106.37
0
LINE
8
BLACK
10
103.775
20
-106.37
11
103.775
21
-107.43
0
LINE
8
BLACK
10
114.7
20
-106.5
11
113.8
21
-106.5
0
LINE
8
BLACK
10
113.8
20
-106.5
11
113.8
21
-106
0
LINE
8
BLACK
10
113.8
20
-106
11
114.7
21
-106
0
LINE
8
BLACK
10
114.7
20
-106
11
114.7
21
-106.5
0
LINE
8
BLACK
10
112.95
20
-106.5
11
112.05
21
-106.5
0
LINE
8
BLACK
10
112.05
20
-106.5
11
112.05
21
-106
0
LINE
8
BLACK
10
112.05
20
-106
11
112.95
21
-106
0
LINE
8
BLACK
10
112.95
20
-106
11
112.95
21
-106.5
0
LINE
8
BLACK
10
102.65
20
-105.625
11
101.85
21
-105.625
0
LINE
8
BLACK
10
101.85
20
-105.625
11
101.85
21
-104.875
0
LINE
8
BLACK
10
101.85
20
-104.875
11
102.65
21
-104.875
0
LINE
8
BLACK
10
102.65
20
-104.875
11
102.65
21
-105.625
0
LINE
8
BLACK
10
104.15
20
-105.625
11
103.35
21
-105.625
0
LINE
8
BLACK
10
103.35
20
-105.625
11
103.35
21
-104.875
0
LINE
8
BLACK
10
103.35
20
-104.875
11
104.15
21
-104.875
0
LINE
8
BLACK
10
104.15
20
-104.875
11
104.15
21
-105.625
0
LINE
8
BLACK
10
105.9
20
-105.625
11
105.1
21
-105.625
0
LINE
8
BLACK
10
105.1
20
-105.625
11
105.1
21
-104.875
0
LINE
8
BLACK
10
105.1
20
-104.875
11
105.9
21
-104.875
0
LINE
8
BLACK
10
105.9
20
-104.875
11
105.9
21
-105.625
0
LINE
8
BLACK
10
107.4
20
-105.625
11
106.6
21
-105.625
0
LINE
8
BLACK
10
106.6
20
-105.625
11
106.6
21
-104.875
0
LINE
8
BLACK
10
106.6
20
-104.875
11
107.4
21
-104.875
0
LINE
8
BLACK
10
107.4
20
-104.875
11
107.4
21
-105.625
0
LINE
8
BLACK
10
104.125
20
-104.15
11
103.375
21
-104.15
0
LINE
8
BLACK
10
103.375
20
-104.15
11
103.375
21
-103.35
0
LINE
8
BLACK
10
103.375
20
-103.35
11
104.125
21
-103.35
0
LINE
8
BLACK
10
104.125
20
-103.35
11
104.125
21
-104.15
0
LINE
8
BLACK
10
109.125
20
-104
11
107.875
21
-104
0
LINE
8
BLACK
10
107.875
20
-104
11
107.875
21
-103
0
LINE
8
BLACK
10
107.875
20
-103
11
109.125
21
-103
0
LINE
8
BLACK
10
109.125
20
-103
11
109.125
21
-104
0
LINE
8
BLACK
10
105.45
20
-103.85
11
104.95
21
-103.85
0
LINE
8
BLACK
10
104.95
20
-103.85
11
104.95
21
-103.35
0
LINE
8
BLACK
10
104.95
20
-103.35
11
105.45
21
-103.35
0
LINE
8
BLACK
10
105.45
20
-103.35
11
105.45
21
-103.85
0
LINE
8
BLACK
10
106.25
20
-103.85
11
105.75
21
-103.85
0
LINE
8
BLACK
10
105.75
20
-103.85
11
105.75
21
-103.35
0
LINE
8
BLACK
10
105.75
20
-103.35
11
106.25
21
-103.35
0
LINE
8
BLACK
10
106.25
20
-103.35
11
106.25
21
-103.85
0
LINE
8
BLACK
10
107.05
20
-103.85
11
106.55
21
-103.85
0
LINE
8
BLACK
10
106.55
20
-103.85
11
106.55
21
-103.35
0
LINE
8
BLACK
10
106.55
20
-103.35
11
107.05
21
-103.35
0
LINE
8
BLACK
10
107.05
20
-103.35
11
107.05
21
-103.85
0
LINE
8
BLACK
10
102.7
20
-103.75
11
101.8
21
-103.75
0
LINE
8
BLACK
10
101.8
20
-103.75
11
101.8
21
-103.25
0
LINE
8
BLACK
10
101.8
20
-103.25
11
102.7
21
-103.25
0
LINE
8
BLACK
10
102.7
20
-103.25
11
102.7
21
-103.75
0
LINE
8
BLACK
10
101.2
20
-103.75
11
100.3
21
-103.75
0
LINE
8
BLACK
10
100.3
20
-103.75
11
100.3
21
-103.25
0
LINE
8
BLACK
10
100.3
20
-103.25
11
101.2
21
-103.25
0
LINE
8
BLACK
10
101.2
20
-103.25
11
101.2
21
-103.75
0
LINE
8
BLACK
10
107.05
20
-103.05
11
106.55
21
-103.05
0
LINE
8
BLACK
10
106.55
20
-103.05
11
106.55
21
-102.55
0
LINE
8
BLACK
10
106.55
20
-102.55
11
107.05
21
-102.55
0
LINE
8
BLACK
10
107.05
20
-102.55
11
107.05
21
-103.05
0
LINE
8
BLACK
10
105.45
20
-103.05
11
104.95
21
-103.05
0
LINE
8
BLACK
10
104.95
20
-103.05
11
104.95
21
-102.55
0
LINE
8
BLACK
10
104.95
20
-102.55
11
105.45
21
-102.55
0
LINE
8
BLACK
10
105.45
20
-102.55
11
105.45
21
-103.05
0
LINE
8
BLACK
10
104.125
20
-102.65
11
103.375
21
-102.65
0
LINE
8
BLACK
10
103.375
20
-102.65
11
103.375
21
-101.85
0
LINE
8
BLACK
10
103.375
20
-101.85
11
104.125
21
-101.85
0
LINE
8
BLACK
10
104.125
20
-101.85
11
104.125
21
-102.65
0
LINE
8
BLACK
10
107.05
20
-102.25
11
106.55
21
-102.25
0
LINE
8
BLACK
10
106.55
20
-102.25
11
106.55
21
-101.75
0
LINE
8
BLACK
10
106.55
20
-101.75
11
107.05
21
-101.75
0
LINE
8
BLACK
10
107.05
20
-101.75
11
107.05
21
-102.25
0
LINE
8
BLACK
10
105.45
20
-102.25
11
104.95
21
-102.25
0
LINE
8
BLACK
10
104.95
20
-102.25
11
104.95
21
-101.75
0
LINE
8
BLACK
10
104.95
20
-101.75
11
105.45
21
-101.75
0
LINE
8
BLACK
10
105.45
20
-101.75
11
105.45
21
-102.25
0
LINE
8
BLACK
10
102.7
20
-102.25
11
101.8
21
-102.25
0
LINE
8
BLACK
10
101.8
20
-102.25
11
101.8
21
-101.75
0
LINE
8
BLACK
10
101.8
20
-101.75
11
102.7
21
-101.75
0
LINE
8
BLACK
10
102.7
20
-101.75
11
102.7
21
-102.25
0
LINE
8
BLACK
10
101.2
20
-102.25
11
100.3
21
-102.25
0
LINE
8
BLACK
10
100.3
20
-102.25
11
100.3
21
-101.75
0
LINE
8
BLACK
10
100.3
20
-101.75
11
101.2
21
-101.75
0
LINE
8
BLACK
10
101.2
20
-101.75
11
101.2
21
-102.25
0
LINE
8
BLACK
10
109.125
20
-102
11
107.875
21
-102
0
LINE
8
BLACK
10
107.875
20
-102
11
107.875
21
-101
0
LINE
8
BLACK
10
107.875
20
-101
11
109.125
21
-101
0
LINE
8
BLACK
10
109.125
20
-101
11
109.125
21
-102
0
LINE
8
BLACK
10
107.05
20
-101.45
11
106.55
21
-101.45
0
LINE
8
BLACK
10
106.55
20
-101.45
11
106.55
21
-100.95
0
LINE
8
BLACK
10
106.55
20
-100.95
11
107.05
21
-100.95
0
LINE
8
BLACK
10
107.05
20
-100.95
11
107.05
21
-101.45
0
LINE
8
BLACK
10
105.45
20
-101.45
11
104.95
21
-101.45
0
LINE
8
BLACK
10
104.95
20
-101.45
11
104.95
21
-100.95
0
LINE
8
BLACK
10
104.95
20
-100.95
11
105.45
21
-100.95
0
LINE
8
BLACK
10
105.45
20
-100.95
11
105.45
21
-101.45
0
LINE
8
BLACK
10
107.05
20
-100.65
11
106.55
21
-100.65
0
LINE
8
BLACK
10
106.55
20
-100.65
11
106.55
21
-100.15
0
LINE
8
BLACK
10
106.55
20
-100.15
11
107.05
21
-100.15
0
LINE
8
BLACK
10
107.05
20
-100.15
11
107.05
21
-100.65
0
LINE
8
BLACK
10
105.45
20
-100.65
11
104.95
21
-100.65
0
LINE
8
BLACK
10
104.95
20
-100.65
11
104.95
21
-100.15
0
LINE
8
BLACK
10
104.95
20
-100.15
11
105.45
21
-100.15
0
LINE
8
BLACK
10
105.45
20
-100.15
11
105.45
21
-100.65
0
LINE
8
BLACK
10
106.25
20
-100.65
11
105.75
21
-100.65
0
LINE
8
BLACK
10
105.75
20
-100.65
11
105.75
21
-100.15
0
LINE
8
BLACK
10
105.75
20
-100.15
11
106.25
21
-100.15
0
LINE
8
BLACK
10
106.25
20
-100.15
11
106.25
21
-100.65
0
LINE
8
BLACK
10
110.15
20
-100.375
11
109.35
21
-100.375
0
LINE
8
BLACK
10
109.35
20
-100.375
11
109.35
21
-99.625
0
LINE
8
BLACK
10
109.35
20
-99.625
11
110.15
21
-99.625
0
LINE
8
BLACK
10
110.15
20
-99.625
11
110.15
21
-100.375
0
LINE
8
BLACK
10
108.65
20
-100.375
11
107.85
21
-100.375
0
LINE
8
BLACK
10
107.85
20
-100.375
11
107.85
21
-99.625
0
LINE
8
BLACK
10
107.85
20
-99.625
11
108.65
21
-99.625
0
LINE
8
BLACK
10
108.65
20
-99.625
11
108.65
21
-100.375
0
LINE
8
BLACK
10
100.375
20
-100.15
11
99.625
21
-100.15
0
LINE
8
BLACK
10
99.625
20
-100.15
11
99.625
21
-99.35
0
LINE
8
BLACK
10
99.625
20
-99.35
11
100.375
21
-99.35
0
LINE
8
BLACK
10
100.375
20
-99.35
11
100.375
21
-100.15
0
LINE
8
BLACK
10
101.95
20
-100
11
101.05
21
-100
0
LINE
8
BLACK
10
101.05
20
-100
11
101.05
21
-99.5
0
LINE
8
BLACK
10
101.05
20
-99.5
11
101.95
21
-99.5
0
LINE
8
BLACK
10
101.95
20
-99.5
11
101.95
21
-100
0
LINE
8
BLACK
10
109.15
20
-98.925
11
108.7
21
-98.925
0
LINE
8
BLACK
10
108.7
20
-98.925
11
108.7
21
-97.475
0
LINE
8
BLACK
10
108.7
20
-97.475
11
109.15
21
-97.475
0
LINE
8
BLACK
10
109.15
20
-97.475
11
109.15
21
-98.925
0
LINE
8
BLACK
10
108.5
20
-98.925
11
108.05
21
-98.925
0
LINE
8
BLACK
10
108.05
20
-98.925
11
108.05
21
-97.475
0
LINE
8
BLACK
10
108.05
20
-97.475
11
108.5
21
-97.475
0
LINE
8
BLACK
10
108.5
20
-97.475
11
108.5
21
-98.925
0
LINE
8
BLACK
10
107.85
20
-98.925
11
107.4
21
-98.925
0
LINE
8
BLACK
10
107.4
20
-98.925
11
107.4
21
-97.475
0
LINE
8
BLACK
10
107.4
20
-97.475
11
107.85
21
-97.475
0
LINE
8
BLACK
10
107.85
20
-97.475
11
107.85
21
-98.925
0
LINE
8
BLACK
10
107.2
20
-98.925
11
106.75
21
-98.925
0
LINE
8
BLACK
10
106.75
20
-98.925
11
106.75
21
-97.475
0
LINE
8
BLACK
10
106.75
20
-97.475
11
107.2
21
-97.475
0
LINE
8
BLACK
10
107.2
20
-97.475
11
107.2
21
-98.925
0
LINE
8
BLACK
10
106.55
20
-98.925
11
106.1
21
-98.925
0
LINE
8
BLACK
10
106.1
20
-98.925
11
106.1
21
-97.475
0
LINE
8
BLACK
10
106.1
20
-97.475
11
106.55
21
-97.475
0
LINE
8
BLACK
10
106.55
20
-97.475
11
106.55
21
-98.925
0
LINE
8
BLACK
10
105.9
20
-98.925
11
105.45
21
-98.925
0
LINE
8
BLACK
10
105.45
20
-98.925
11
105.45
21
-97.475
0
LINE
8
BLACK
10
105.45
20
-97.475
11
105.9
21
-97.475
0
LINE
8
BLACK
10
105.9
20
-97.475
11
105.9
21
-98.925
0
LINE
8
BLACK
10
105.25
20
-98.925
11
104.8
21
-98.925
0
LINE
8
BLACK
10
104.8
20
-98.925
11
104.8
21
-97.475
0
LINE
8
BLACK
10
104.8
20
-97.475
11
105.25
21
-97.475
0
LINE
8
BLACK
10
105.25
20
-97.475
11
105.25
21
-98.925
0
LINE
8
BLACK
10
104.6
20
-98.925
11
104.15
21
-98.925
0
LINE
8
BLACK
10
104.15
20
-98.925
11
104.15
21
-97.475
0
LINE
8
BLACK
10
104.15
20
-97.475
11
104.6
21
-97.475
0
LINE
8
BLACK
10
104.6
20
-97.475
11
104.6
21
-98.925
0
LINE
8
BLACK
10
103.95
20
-98.925
11
103.5
21
-98.925
0
LINE
8
BLACK
10
103.5
20
-98.925
11
103.5
21
-97.475
0
LINE
8
BLACK
10
103.5
20
-97.475
11
103.95
21
-97.475
0
LINE
8
BLACK
10
103.95
20
-97.475
11
103.95
21
-98.925
0
LINE
8
BLACK
10
103.3
20
-98.925
11
102.85
21
-98.925
0
LINE
8
BLACK
10
102.85
20
-98.925
11
102.85
21
-97.475
0
LINE
8
BLACK
10
102.85
20
-97.475
11
103.3
21
-97.475
0
LINE
8
BLACK
10
103.3
20
-97.475
11
103.3
21
-98.925
0
LINE
8
BLACK
10
100.375
20
-98.65
11
99.625
21
-98.65
0
LINE
8
BLACK
10
99.625
20
-98.65
11
99.625
21
-97.85
0
LINE
8
BLACK
10
99.625
20
-97.85
11
100.375
21
-97.85
0
LINE
8
BLACK
10
100.375
20
-97.85
11
100.375
21
-98.65
0
LINE
8
BLACK
10
101.95
20
-98.5
11
101.05
21
-98.5
0
LINE
8
BLACK
10
101.05
20
-98.5
11
101.05
21
-98
0
LINE
8
BLACK
10
101.05
20
-98
11
101.95
21
-98
0
LINE
8
BLACK
10
101.95
20
-98
11
101.95
21
-98.5
0
LINE
8
BLACK
10
97.25
20
-97.2
11
96.75
21
-97.2
0
LINE
8
BLACK
10
96.75
20
-97.2
11
96.75
21
-96.3
0
LINE
8
BLACK
10
96.75
20
-96.3
11
97.25
21
-96.3
0
LINE
8
BLACK
10
97.25
20
-96.3
11
97.25
21
-97.2
0
LINE
8
BLACK
10
98.75
20
-97.2
11
98.25
21
-97.2
0
LINE
8
BLACK
10
98.25
20
-97.2
11
98.25
21
-96.3
0
LINE
8
BLACK
10
98.25
20
-96.3
11
98.75
21
-96.3
0
LINE
8
BLACK
10
98.75
20
-96.3
11
98.75
21
-97.2
0
LINE
8
BLACK
10
112.75
20
-96.95
11
112.25
21
-96.95
0
LINE
8
BLACK
10
112.25
20
-96.95
11
112.25
21
-96.05
0
LINE
8
BLACK
10
112.25
20
-96.05
11
112.75
21
-96.05
0
LINE
8
BLACK
10
112.75
20
-96.05
11
112.75
21
-96.95
0
LINE
8
BLACK
10
114.25
20
-96.95
11
113.75
21
-96.95
0
LINE
8
BLACK
10
113.75
20
-96.95
11
113.75
21
-96.05
0
LINE
8
BLACK
10
113.75
20
-96.05
11
114.25
21
-96.05
0
LINE
8
BLACK
10
114.25
20
-96.05
11
114.25
21
-96.95
0
LINE
8
BLACK
10
111.2
20
-96.25
11
110.3
21
-96.25
0
LINE
8
BLACK
10
110.3
20
-96.25
11
110.3
21
-95.75
0
LINE
8
BLACK
10
110.3
20
-95.75
11
111.2
21
-95.75
0
LINE
8
BLACK
10
111.2
20
-95.75
11
111.2
21
-96.25
0
LINE
8
BLACK
10
114.65
20
-95.4
11
113.85
21
-95.4
0
LINE
8
BLACK
10
113.85
20
-95.4
11
113.85
21
-94.6
0
LINE
8
BLACK
10
113.85
20
-94.6
11
114.65
21
-94.6
0
LINE
8
BLACK
10
114.65
20
-94.6
11
114.65
21
-95.4
0
LINE
8
BLACK
10
113.05
20
-95.4
11
112.25
21
-95.4
0
LINE
8
BLACK
10
112.25
20
-95.4
11
112.25
21
-94.6
0
LINE
8
BLACK
10
112.25
20
-94.6
11
113.05
21
-94.6
0
LINE
8
BLACK
10
113.05
20
-94.6
11
113.05
21
-95.4
0
LINE
8
BLACK
10
111.2
20
-94.75
11
110.3
21
-94.75
0
LINE
8
BLACK
10
110.3
20
-94.75
11
110.3
21
-94.25
0
LINE
8
BLACK
10
110.3
20
-94.25
11
111.2
21
-94.25
0
LINE
8
BLACK
10
111.2
20
-94.25
11
111.2
21
-94.75
0
LINE
8
BLACK
10
114.25
20
-93.95
11
113.75
21
-93.95
0
LINE
8
BLACK
10
113.75
20
-93.95
11
113.75
21
-93.05
0
LINE
8
BLACK
10
113.75
20
-93.05
11
114.25
21
-93.05
0
LINE
8
BLACK
10
114.25
20
-93.05
11
114.25
21
-93.95
0
LINE
8
BLACK
10
112.75
20
-93.95
11
112.25
21
-93.95
0
LINE
8
BLACK
10
112.25
20
-93.95
11
112.25
21
-93.05
0
LINE
8
BLACK
10
112.25
20
-93.05
11
112.75
21
-93.05
0
LINE
8
BLACK
10
112.75
20
-93.05
11
112.75
21
-93.95
0
LINE
8
BLACK
10
111.2
20
-93.5
11
110.3
21
-93.5
0
LINE
8
BLACK
10
110.3
20
-93.5
11
110.3
21
-93
0
LINE
8
BLACK
10
110.3
20
-93
11
111.2
21
-93
0
LINE
8
BLACK
10
111.2
20
-93
11
111.2
21
-93.5
0
LINE
8
BLACK
10
105.9
20
-93.025
11
105.45
21
-93.025
0
LINE
8
BLACK
10
105.45
20
-93.025
11
105.45
21
-91.575
0
LINE
8
BLACK
10
105.45
20
-91.575
11
105.9
21
-91.575
0
LINE
8
BLACK
10
105.9
20
-91.575
11
105.9
21
-93.025
0
LINE
8
BLACK
10
105.25
20
-93.025
11
104.8
21
-93.025
0
LINE
8
BLACK
10
104.8
20
-93.025
11
104.8
21
-91.575
0
LINE
8
BLACK
10
104.8
20
-91.575
11
105.25
21
-91.575
0
LINE
8
BLACK
10
105.25
20
-91.575
11
105.25
21
-93.025
0
LINE
8
BLACK
10
104.6
20
-93.025
11
104.15
21
-93.025
0
LINE
8
BLACK
10
104.15
20
-93.025
11
104.15
21
-91.575
0
LINE
8
BLACK
10
104.15
20
-91.575
11
104.6
21
-91.575
0
LINE
8
BLACK
10
104.6
20
-91.575
11
104.6
21
-93.025
0
LINE
8
BLACK
10
106.55
20
-93.025
11
106.1
21
-93.025
0
LINE
8
BLACK
10
106.1
20
-93.025
11
106.1
21
-91.575
0
LINE
8
BLACK
10
106.1
20
-91.575
11
106.55
21
-91.575
0
LINE
8
BLACK
10
106.55
20
-91.575
11
106.55
21
-93.025
0
LINE
8
BLACK
10
103.95
20
-93.025
11
103.5
21
-93.025
0
LINE
8
BLACK
10
103.5
20
-93.025
11
103.5
21
-91.575
0
LINE
8
BLACK
10
103.5
20
-91.575
11
103.95
21
-91.575
0
LINE
8
BLACK
10
103.95
20
-91.575
11
103.95
21
-93.025
0
LINE
8
BLACK
10
103.3
20
-93.025
11
102.85
21
-93.025
0
LINE
8
BLACK
10
102.85
20
-93.025
11
102.85
21
-91.575
0
LINE
8
BLACK
10
102.85
20
-91.575
11
103.3
21
-91.575
0
LINE
8
BLACK
10
103.3
20
-91.575
11
103.3
21
-93.025
0
LINE
8
BLACK
10
107.2
20
-93.025
11
106.75
21
-93.025
0
LINE
8
BLACK
10
106.75
20
-93.025
11
106.75
21
-91.575
0
LINE
8
BLACK
10
106.75
20
-91.575
11
107.2
21
-91.575
0
LINE
8
BLACK
10
107.2
20
-91.575
11
107.2
21
-93.025
0
LINE
8
BLACK
10
107.85
20
-93.025
11
107.4
21
-93.025
0
LINE
8
BLACK
10
107.4
20
-93.025
11
107.4
21
-91.575
0
LINE
8
BLACK
10
107.4
20
-91.575
11
107.85
21
-91.575
0
LINE
8
BLACK
10
107.85
20
-91.575
11
107.85
21
-93.025
0
LINE
8
BLACK
10
108.5
20
-93.025
11
108.05
21
-93.025
0
LINE
8
BLACK
10
108.05
20
-93.025
11
108.05
21
-91.575
0
LINE
8
BLACK
10
108.05
20
-91.575
11
108.5
21
-91.575
0
LINE
8
BLACK
10
108.5
20
-91.575
11
108.5
21
-93.025
0
LINE
8
BLACK
10
109.15
20
-93.025
11
108.7
21
-93.025
0
LINE
8
BLACK
10
108.7
20
-93.025
11
108.7
21
-91.575
0
LINE
8
BLACK
10
108.7
20
-91.575
11
109.15
21
-91.575
0
LINE
8
BLACK
10
109.15
20
-91.575
11
109.15
21
-93.025
0
LINE
8
BLACK
10
101.625
20
-92.9
11
100.875
21
-92.9
0
LINE
8
BLACK
10
100.875
20
-92.9
11
100.875
21
-92.1
0
LINE
8
BLACK
10
100.875
20
-92.1
11
101.625
21
-92.1
0
LINE
8
BLACK
10
101.625
20
-92.1
11
101.625
21
-92.9
0
LINE
8
BLACK
10
113.05
20
-92.4
11
112.25
21
-92.4
0
LINE
8
BLACK
10
112.25
20
-92.4
11
112.25
21
-91.6
0
LINE
8
BLACK
10
112.25
20
-91.6
11
113.05
21
-91.6
0
LINE
8
BLACK
10
113.05
20
-91.6
11
113.05
21
-92.4
0
LINE
8
BLACK
10
114.65
20
-92.4
11
113.85
21
-92.4
0
LINE
8
BLACK
10
113.85
20
-92.4
11
113.85
21
-91.6
0
LINE
8
BLACK
10
113.85
20
-91.6
11
114.65
21
-91.6
0
LINE
8
BLACK
10
114.65
20
-91.6
11
114.65
21
-92.4
0
LINE
8
BLACK
10
111.2
20
-92
11
110.3
21
-92
0
LINE
8
BLACK
10
110.3
20
-92
11
110.3
21
-91.5
0
LINE
8
BLACK
10
110.3
20
-91.5
11
111.2
21
-91.5
0
LINE
8
BLACK
10
111.2
20
-91.5
11
111.2
21
-92
0
LINE
8
BLACK
10
101.625
20
-91.4
11
100.875
21
-91.4
0
LINE
8
BLACK
10
100.875
20
-91.4
11
100.875
21
-90.6
0
LINE
8
BLACK
10
100.875
20
-90.6
11
101.625
21
-90.6
0
LINE
8
BLACK
10
101.625
20
-90.6
11
101.625
21
-91.4
  0
ENDSEC
  0
EOF
