M48
;DRILL file {KiCad (2017-08-16 revision 90873a101)-master} date Thu Dec 28 02:46:28 2017
;FORMAT={-:-/ absolute / inch / decimal}
FMAT,2
INCH,TZ
T1C0.016
T2C0.026
T3C0.039
T4C0.122
%
G90
G05
M72
T1
X3.9252Y-4.2795
X3.9449Y-3.5866
X3.9449Y-4.1929
X3.9665Y-3.7992
X3.9882Y-4.1339
X3.9921Y-4.0984
X4.0149Y-3.6123
X4.0256Y-3.7992
X4.0295Y-3.9055
X4.0374Y-3.9862
X4.038Y-3.8287
X4.0551Y-3.7126
X4.0621Y-4.0314
X4.065Y-4.1681
X4.071Y-3.6817
X4.0961Y-4.2559
X4.1142Y-3.9862
X4.1142Y-4.1142
X4.1929Y-4.1287
X4.1929Y-4.1587
X4.2244Y-3.8195
X4.2321Y-4.1086
X4.2323Y-3.9272
X4.2401Y-3.6817
X4.2421Y-4.1732
X4.2559Y-3.8195
X4.2677Y-3.7015
X4.2795Y-4.1142
X4.3189Y-3.9606
X4.3228Y-3.7717
X4.3346Y-3.6811
X4.3346Y-3.9961
X4.3465Y-4.315
X4.3898Y-4.2559
X4.4223Y-3.9183
X4.4291Y-4.0315
X4.4724Y-4.1772
X4.5866Y-3.7165
T2
X3.8484Y-3.6606
X3.8484Y-3.7106
T3
X3.7894Y-4.1012
X3.7894Y-4.2012
X3.7894Y-4.3012
X3.7894Y-4.4012
T4
X3.7795Y-3.9272
X4.5669Y-3.9272
T0
M30
