  0
SECTION
  2
HEADER
  9
$ANGBASE
  50
0.0
  9
$ANGDIR
  70
  1
  9
$MEASUREMENT
  70
0
  0
ENDSEC
  0
SECTION
  2
TABLES
  0
TABLE
  2
LTYPE
  70
1
  0
LTYPE
  2
CONTINUOUS
  70
0
  3
Solid line
  72
65
  73
0
  40
0.0
  0
ENDTAB
  0
TABLE
  2
STYLE
  70
4
  0
STYLE
  2
KICAD
  70
0
  40
0
  41
1
  42
1
  50
0
  71
0
  3
isocp.shx
  0
STYLE
  2
KICADB
  70
0
  40
0
  41
1
  42
1
  50
0
  71
0
  3
isocp.shx
  0
STYLE
  2
KICADI
  70
0
  40
0
  41
1
  42
1
  50
15
  71
0
  3
isocp.shx
  0
STYLE
  2
KICADBI
  70
0
  40
0
  41
1
  42
1
  50
15
  71
0
  3
isocp.shx
  0
ENDTAB
  0
TABLE
  2
LAYER
  70
30
  0
LAYER
  2
BLACK
  70
0
  62
7
  6
CONTINUOUS
  0
LAYER
  2
GRAY1
  70
0
  62
251
  6
CONTINUOUS
  0
LAYER
  2
GRAY2
  70
0
  62
8
  6
CONTINUOUS
  0
LAYER
  2
GRAY3
  70
0
  62
9
  6
CONTINUOUS
  0
LAYER
  2
WHITE
  70
0
  62
7
  6
CONTINUOUS
  0
LAYER
  2
LYELLOW
  70
0
  62
51
  6
CONTINUOUS
  0
LAYER
  2
BLUE1
  70
0
  62
178
  6
CONTINUOUS
  0
LAYER
  2
GREEN1
  70
0
  62
98
  6
CONTINUOUS
  0
LAYER
  2
CYAN1
  70
0
  62
138
  6
CONTINUOUS
  0
LAYER
  2
RED1
  70
0
  62
18
  6
CONTINUOUS
  0
LAYER
  2
MAGENTA1
  70
0
  62
228
  6
CONTINUOUS
  0
LAYER
  2
BROWN1
  70
0
  62
58
  6
CONTINUOUS
  0
LAYER
  2
BLUE2
  70
0
  62
5
  6
CONTINUOUS
  0
LAYER
  2
GREEN2
  70
0
  62
3
  6
CONTINUOUS
  0
LAYER
  2
CYAN2
  70
0
  62
4
  6
CONTINUOUS
  0
LAYER
  2
RED2
  70
0
  62
1
  6
CONTINUOUS
  0
LAYER
  2
MAGENTA2
  70
0
  62
6
  6
CONTINUOUS
  0
LAYER
  2
BROWN2
  70
0
  62
54
  6
CONTINUOUS
  0
LAYER
  2
BLUE3
  70
0
  62
171
  6
CONTINUOUS
  0
LAYER
  2
GREEN3
  70
0
  62
91
  6
CONTINUOUS
  0
LAYER
  2
CYAN3
  70
0
  62
131
  6
CONTINUOUS
  0
LAYER
  2
RED3
  70
0
  62
11
  6
CONTINUOUS
  0
LAYER
  2
MAGENTA3
  70
0
  62
221
  6
CONTINUOUS
  0
LAYER
  2
YELLOW3
  70
0
  62
2
  6
CONTINUOUS
  0
LAYER
  2
BLUE4
  70
0
  62
5
  6
CONTINUOUS
  0
LAYER
  2
GREEN4
  70
0
  62
3
  6
CONTINUOUS
  0
LAYER
  2
CYAN4
  70
0
  62
4
  6
CONTINUOUS
  0
LAYER
  2
RED4
  70
0
  62
1
  6
CONTINUOUS
  0
LAYER
  2
MAGENTA4
  70
0
  62
6
  6
CONTINUOUS
  0
LAYER
  2
YELLOW4
  70
0
  62
2
  6
CONTINUOUS
  0
ENDTAB
  0
ENDSEC
  0
SECTION
  2
ENTITIES
0
LINE
8
BLACK
10
118.006
20
-89.9261
11
118.013
21
-89.9261
0
LINE
8
BLACK
10
118.013
20
-89.9261
11
118.019
21
-89.9284
0
LINE
8
BLACK
10
118.019
20
-89.9284
11
118.026
21
-89.9295
0
LINE
8
BLACK
10
118.026
20
-89.9295
11
118.031
21
-89.9328
0
LINE
8
BLACK
10
118.031
20
-89.9328
11
118.037
21
-89.935
0
LINE
8
BLACK
10
118.037
20
-89.935
11
118.043
21
-89.9393
0
LINE
8
BLACK
10
118.043
20
-89.9393
11
118.048
21
-89.9425
0
LINE
8
BLACK
10
118.048
20
-89.9425
11
118.052
21
-89.9476
0
LINE
8
BLACK
10
118.052
20
-89.9476
11
118.057
21
-89.9518
0
LINE
8
BLACK
10
118.057
20
-89.9518
11
118.061
21
-89.9575
0
LINE
8
BLACK
10
118.061
20
-89.9575
11
118.065
21
-89.9625
0
LINE
8
BLACK
10
118.065
20
-89.9625
11
118.067
21
-89.9687
0
LINE
8
BLACK
10
118.067
20
-89.9687
11
118.07
21
-89.9743
0
LINE
8
BLACK
10
118.07
20
-89.9743
11
118.072
21
-89.9808
0
LINE
8
BLACK
10
118.072
20
-89.9808
11
118.074
21
-89.987
0
LINE
8
BLACK
10
118.074
20
-89.987
11
118.074
21
-89.9935
0
LINE
8
BLACK
10
118.074
20
-89.9935
11
118.075
21
-90
0
LINE
8
BLACK
10
118.075
20
-90
11
118.075
21
-114
0
LINE
8
BLACK
10
118.075
20
-114
11
118.074
21
-114.006
0
LINE
8
BLACK
10
118.074
20
-114.006
11
118.074
21
-114.013
0
LINE
8
BLACK
10
118.074
20
-114.013
11
118.072
21
-114.019
0
LINE
8
BLACK
10
118.072
20
-114.019
11
118.07
21
-114.026
0
LINE
8
BLACK
10
118.07
20
-114.026
11
118.067
21
-114.031
0
LINE
8
BLACK
10
118.067
20
-114.031
11
118.065
21
-114.037
0
LINE
8
BLACK
10
118.065
20
-114.037
11
118.061
21
-114.043
0
LINE
8
BLACK
10
118.061
20
-114.043
11
118.057
21
-114.048
0
LINE
8
BLACK
10
118.057
20
-114.048
11
118.052
21
-114.052
0
LINE
8
BLACK
10
118.052
20
-114.052
11
118.048
21
-114.057
0
LINE
8
BLACK
10
118.048
20
-114.057
11
118.043
21
-114.061
0
LINE
8
BLACK
10
118.043
20
-114.061
11
118.037
21
-114.065
0
LINE
8
BLACK
10
118.037
20
-114.065
11
118.031
21
-114.067
0
LINE
8
BLACK
10
118.031
20
-114.067
11
118.026
21
-114.07
0
LINE
8
BLACK
10
118.026
20
-114.07
11
118.019
21
-114.072
0
LINE
8
BLACK
10
118.019
20
-114.072
11
118.013
21
-114.074
0
LINE
8
BLACK
10
118.013
20
-114.074
11
118.006
21
-114.074
0
LINE
8
BLACK
10
118.006
20
-114.074
11
118
21
-114.075
0
LINE
8
BLACK
10
118
20
-114.075
11
94
21
-114.075
0
LINE
8
BLACK
10
94
20
-114.075
11
93.9935
21
-114.074
0
LINE
8
BLACK
10
93.9935
20
-114.074
11
93.987
21
-114.074
0
LINE
8
BLACK
10
93.987
20
-114.074
11
93.9808
21
-114.072
0
LINE
8
BLACK
10
93.9808
20
-114.072
11
93.9743
21
-114.07
0
LINE
8
BLACK
10
93.9743
20
-114.07
11
93.9687
21
-114.067
0
LINE
8
BLACK
10
93.9687
20
-114.067
11
93.9625
21
-114.065
0
LINE
8
BLACK
10
93.9625
20
-114.065
11
93.9575
21
-114.061
0
LINE
8
BLACK
10
93.9575
20
-114.061
11
93.9518
21
-114.057
0
LINE
8
BLACK
10
93.9518
20
-114.057
11
93.9476
21
-114.052
0
LINE
8
BLACK
10
93.9476
20
-114.052
11
93.9425
21
-114.048
0
LINE
8
BLACK
10
93.9425
20
-114.048
11
93.9393
21
-114.043
0
LINE
8
BLACK
10
93.9393
20
-114.043
11
93.935
21
-114.037
0
LINE
8
BLACK
10
93.935
20
-114.037
11
93.9328
21
-114.031
0
LINE
8
BLACK
10
93.9328
20
-114.031
11
93.9295
21
-114.026
0
LINE
8
BLACK
10
93.9295
20
-114.026
11
93.9284
21
-114.019
0
LINE
8
BLACK
10
93.9284
20
-114.019
11
93.9261
21
-114.013
0
LINE
8
BLACK
10
93.9261
20
-114.013
11
93.9261
21
-114.006
0
LINE
8
BLACK
10
93.9261
20
-114.006
11
93.925
21
-114
0
LINE
8
BLACK
10
93.925
20
-114
11
93.925
21
-90
0
LINE
8
BLACK
10
93.925
20
-90
11
93.9261
21
-89.9935
0
LINE
8
BLACK
10
93.9261
20
-89.9935
11
93.9261
21
-89.987
0
LINE
8
BLACK
10
93.9261
20
-89.987
11
93.9284
21
-89.9808
0
LINE
8
BLACK
10
93.9284
20
-89.9808
11
93.9295
21
-89.9743
0
LINE
8
BLACK
10
93.9295
20
-89.9743
11
93.9328
21
-89.9687
0
LINE
8
BLACK
10
93.9328
20
-89.9687
11
93.935
21
-89.9625
0
LINE
8
BLACK
10
93.935
20
-89.9625
11
93.9393
21
-89.9575
0
LINE
8
BLACK
10
93.9393
20
-89.9575
11
93.9425
21
-89.9518
0
LINE
8
BLACK
10
93.9425
20
-89.9518
11
93.9476
21
-89.9476
0
LINE
8
BLACK
10
93.9476
20
-89.9476
11
93.9518
21
-89.9425
0
LINE
8
BLACK
10
93.9518
20
-89.9425
11
93.9575
21
-89.9393
0
LINE
8
BLACK
10
93.9575
20
-89.9393
11
93.9625
21
-89.935
0
LINE
8
BLACK
10
93.9625
20
-89.935
11
93.9687
21
-89.9328
0
LINE
8
BLACK
10
93.9687
20
-89.9328
11
93.9743
21
-89.9295
0
LINE
8
BLACK
10
93.9743
20
-89.9295
11
93.9808
21
-89.9284
0
LINE
8
BLACK
10
93.9808
20
-89.9284
11
93.987
21
-89.9261
0
LINE
8
BLACK
10
93.987
20
-89.9261
11
93.9935
21
-89.9261
0
LINE
8
BLACK
10
93.9935
20
-89.9261
11
94
21
-89.925
0
LINE
8
BLACK
10
94
20
-89.925
11
118
21
-89.925
0
LINE
8
BLACK
10
118
20
-89.925
11
118.006
21
-89.9261
0
LINE
8
BLACK
10
94.075
20
-90.075
11
94.075
21
-113.925
0
LINE
8
BLACK
10
94.075
20
-113.925
11
117.925
21
-113.925
0
LINE
8
BLACK
10
117.925
20
-113.925
11
117.925
21
-90.075
0
LINE
8
BLACK
10
117.925
20
-90.075
11
94.075
21
-90.075
  0
ENDSEC
  0
EOF
