G04 #@! TF.GenerationSoftware,KiCad,Pcbnew,(2017-08-16 revision 90873a101)-master*
G04 #@! TF.CreationDate,2017-12-28T02:46:26+02:00*
G04 #@! TF.ProjectId,distance-sensor-vl53l0x,64697374616E63652D73656E736F722D,rev?*
G04 #@! TF.SameCoordinates,Original*
G04 #@! TF.FileFunction,Soldermask,Top*
G04 #@! TF.FilePolarity,Negative*
%FSLAX46Y46*%
G04 Gerber Fmt 4.6, Leading zero omitted, Abs format (unit mm)*
G04 Created by KiCad (PCBNEW (2017-08-16 revision 90873a101)-master) date Thu Dec 28 02:46:26 2017*
%MOMM*%
%LPD*%
G01*
G04 APERTURE LIST*
%ADD10R,1.200000X1.150000*%
%ADD11C,3.700000*%
%ADD12R,1.150000X1.200000*%
%ADD13R,1.650000X1.400000*%
%ADD14R,1.200000X1.200000*%
%ADD15R,1.400000X1.400000*%
%ADD16O,1.400000X1.400000*%
%ADD17R,0.850000X1.780000*%
%ADD18R,1.875000X2.500000*%
%ADD19R,2.775000X2.300000*%
%ADD20R,1.575000X2.300000*%
%ADD21R,0.900000X1.300000*%
%ADD22R,1.300000X0.900000*%
%ADD23R,0.850000X1.850000*%
%ADD24R,1.050000X1.460000*%
%ADD25R,0.900000X0.900000*%
%ADD26R,2.100000X2.100000*%
%ADD27O,2.100000X2.100000*%
G04 APERTURE END LIST*
D10*
X112800000Y-108800000D03*
X114300000Y-108800000D03*
D11*
X116000000Y-99750000D03*
X96000000Y-99750000D03*
D12*
X100000000Y-99750000D03*
X100000000Y-98250000D03*
X101250000Y-92500000D03*
X101250000Y-91000000D03*
D10*
X108250000Y-100000000D03*
X109750000Y-100000000D03*
X112850000Y-103250000D03*
X114350000Y-103250000D03*
D12*
X103750000Y-102250000D03*
X103750000Y-103750000D03*
D13*
X108500000Y-101500000D03*
X108500000Y-103500000D03*
D14*
X112450000Y-93500000D03*
X114050000Y-93500000D03*
D15*
X97750000Y-94250000D03*
D16*
X97750000Y-92980000D03*
D17*
X104790000Y-109840000D03*
X105440000Y-109840000D03*
X106090000Y-109840000D03*
X106740000Y-109840000D03*
X107390000Y-109840000D03*
D18*
X103627500Y-110200000D03*
X108552500Y-110200000D03*
D19*
X103180000Y-112500000D03*
X109000000Y-112500000D03*
D20*
X105250000Y-112500000D03*
X106930000Y-112500000D03*
D21*
X97000000Y-96266000D03*
X98500000Y-96266000D03*
D22*
X101500000Y-98250000D03*
X101500000Y-99750000D03*
X107000000Y-106500000D03*
X107000000Y-108000000D03*
X105250000Y-106500000D03*
X105250000Y-108000000D03*
D21*
X114000000Y-92000000D03*
X112500000Y-92000000D03*
D22*
X110750000Y-96000000D03*
X110750000Y-94500000D03*
X110750000Y-93250000D03*
X110750000Y-91750000D03*
X100750000Y-103500000D03*
X100750000Y-102000000D03*
X102250000Y-103500000D03*
X102250000Y-102000000D03*
D23*
X103075000Y-98200000D03*
X103725000Y-98200000D03*
X104375000Y-98200000D03*
X105025000Y-98200000D03*
X105675000Y-98200000D03*
X106325000Y-98200000D03*
X106975000Y-98200000D03*
X107625000Y-98200000D03*
X108275000Y-98200000D03*
X108925000Y-98200000D03*
X108925000Y-92300000D03*
X108275000Y-92300000D03*
X107625000Y-92300000D03*
X106975000Y-92300000D03*
X106325000Y-92300000D03*
X105675000Y-92300000D03*
X105025000Y-92300000D03*
X104375000Y-92300000D03*
X103725000Y-92300000D03*
X103075000Y-92300000D03*
D24*
X112650000Y-107100000D03*
X113600000Y-107100000D03*
X114550000Y-107100000D03*
X114550000Y-104900000D03*
X112650000Y-104900000D03*
D25*
X106800000Y-100400000D03*
X106800000Y-101200000D03*
X106800000Y-102000000D03*
X106800000Y-103600000D03*
X106800000Y-102800000D03*
X106000000Y-103600000D03*
X105200000Y-100400000D03*
X105200000Y-101200000D03*
X105200000Y-102000000D03*
X105200000Y-102800000D03*
X105200000Y-103600000D03*
X106000000Y-100400000D03*
D26*
X96250000Y-111790000D03*
D27*
X96250000Y-109250000D03*
X96250000Y-106710000D03*
X96250000Y-104170000D03*
D21*
X100250000Y-107500000D03*
X98750000Y-107500000D03*
X100250000Y-109250000D03*
X98750000Y-109250000D03*
M02*
