G04 #@! TF.GenerationSoftware,KiCad,Pcbnew,(2017-08-16 revision 90873a101)-master*
G04 #@! TF.CreationDate,2017-12-28T02:46:26+02:00*
G04 #@! TF.ProjectId,distance-sensor-vl53l0x,64697374616E63652D73656E736F722D,rev?*
G04 #@! TF.SameCoordinates,Original*
G04 #@! TF.FileFunction,Copper,L2,Bot,Signal*
G04 #@! TF.FilePolarity,Positive*
%FSLAX46Y46*%
G04 Gerber Fmt 4.6, Leading zero omitted, Abs format (unit mm)*
G04 Created by KiCad (PCBNEW (2017-08-16 revision 90873a101)-master) date Thu Dec 28 02:46:26 2017*
%MOMM*%
%LPD*%
G01*
G04 APERTURE LIST*
%ADD10C,3.300000*%
%ADD11R,0.760000X2.400000*%
%ADD12R,1.000000X1.000000*%
%ADD13O,1.000000X1.000000*%
%ADD14R,1.700000X1.700000*%
%ADD15O,1.700000X1.700000*%
%ADD16C,0.600000*%
%ADD17C,0.200000*%
%ADD18C,0.300000*%
%ADD19C,0.250000*%
%ADD20C,0.160000*%
%ADD21C,0.254000*%
G04 APERTURE END LIST*
D10*
X116000000Y-99750000D03*
X96000000Y-99750000D03*
D11*
X116470000Y-96110000D03*
X116470000Y-92300000D03*
X115200000Y-96110000D03*
X115200000Y-92300000D03*
X113930000Y-96110000D03*
X113930000Y-92300000D03*
X112660000Y-96110000D03*
X112660000Y-92300000D03*
X111390000Y-96110000D03*
X111390000Y-92300000D03*
D12*
X97750000Y-94250000D03*
D13*
X97750000Y-92980000D03*
D14*
X96250000Y-111790000D03*
D15*
X96250000Y-109250000D03*
X96250000Y-106710000D03*
X96250000Y-104170000D03*
D16*
X100750000Y-96500000D03*
X102250000Y-96500000D03*
X100200000Y-91100000D03*
X108700000Y-104500000D03*
X113600000Y-106100000D03*
X110400000Y-109600000D03*
X101300000Y-105000000D03*
X109700000Y-100600000D03*
X103250000Y-105869998D03*
X111500000Y-108100000D03*
X104040000Y-108100000D03*
X116500000Y-94400000D03*
X112500000Y-102400000D03*
X102350027Y-99200032D03*
X101978555Y-91753555D03*
X107500000Y-99750000D03*
X112325728Y-99525728D03*
X110100000Y-101500000D03*
X110100000Y-93500000D03*
X109800000Y-95800000D03*
X103177439Y-102398539D03*
X101400000Y-104100000D03*
X102565500Y-97249979D03*
X103403005Y-93514277D03*
X100200000Y-106500000D03*
X108100000Y-97015000D03*
X99700000Y-108700000D03*
X107300000Y-97015000D03*
X103000000Y-94300000D03*
X102550000Y-101250000D03*
X104500000Y-101250000D03*
X107494203Y-104357253D03*
X108400843Y-94019283D03*
X107697862Y-93514823D03*
X104500000Y-104500000D03*
X107750000Y-106000000D03*
X106500000Y-104870000D03*
X106500000Y-105630000D03*
D17*
X106900000Y-95200000D02*
X103550000Y-95200000D01*
X103550000Y-95200000D02*
X102250000Y-96500000D01*
X106900000Y-93200000D02*
X106900000Y-95200000D01*
X107300000Y-92800000D02*
X106900000Y-93200000D01*
X110310000Y-92800000D02*
X107300000Y-92800000D01*
X111390000Y-92300000D02*
X110810000Y-92300000D01*
X110810000Y-92300000D02*
X110310000Y-92800000D01*
X102250000Y-96500000D02*
X100750000Y-96500000D01*
D18*
X113600000Y-106100000D02*
X110300000Y-106100000D01*
X110300000Y-106100000D02*
X108700000Y-104500000D01*
X110400000Y-109600000D02*
X110824264Y-109600000D01*
X110824264Y-109600000D02*
X113600000Y-106824264D01*
X113600000Y-106824264D02*
X113600000Y-106100000D01*
D17*
X101300000Y-105000000D02*
X102169998Y-105869998D01*
X102169998Y-105869998D02*
X103250000Y-105869998D01*
X111390000Y-96930000D02*
X109700000Y-98620000D01*
X111390000Y-96110000D02*
X111390000Y-96930000D01*
X109700000Y-98620000D02*
X109700000Y-100600000D01*
X112660000Y-96110000D02*
X111390000Y-96110000D01*
X113930000Y-96110000D02*
X112660000Y-96110000D01*
X115200000Y-96110000D02*
X113930000Y-96110000D01*
D18*
X101300000Y-111600000D02*
X101300000Y-110840000D01*
X101300000Y-110840000D02*
X104040000Y-108100000D01*
X97590000Y-111600000D02*
X101300000Y-111600000D01*
X96250000Y-111790000D02*
X97400000Y-111790000D01*
X97400000Y-111790000D02*
X97590000Y-111600000D01*
X104040000Y-108100000D02*
X111500000Y-108100000D01*
X116500000Y-94400000D02*
X116500000Y-96080000D01*
X116500000Y-96080000D02*
X116470000Y-96110000D01*
X112500000Y-102400000D02*
X111000000Y-102400000D01*
X111000000Y-102400000D02*
X110100000Y-101500000D01*
D17*
X116470000Y-96110000D02*
X116470000Y-96930000D01*
D19*
X102899995Y-99750000D02*
X102350027Y-99200032D01*
X107500000Y-99750000D02*
X102899995Y-99750000D01*
D17*
X110100000Y-101500000D02*
X112074272Y-99525728D01*
X112074272Y-99525728D02*
X112325728Y-99525728D01*
X110000000Y-95175736D02*
X110000000Y-93600000D01*
X110000000Y-93600000D02*
X110100000Y-93500000D01*
X109800000Y-95800000D02*
X109800000Y-95375736D01*
X109800000Y-95375736D02*
X110000000Y-95175736D01*
X101400000Y-104100000D02*
X103101461Y-102398539D01*
X103101461Y-102398539D02*
X103177439Y-102398539D01*
D19*
X97750000Y-94270000D02*
X97750000Y-94977106D01*
X100022873Y-97249979D02*
X102565500Y-97249979D01*
X97750000Y-94977106D02*
X100022873Y-97249979D01*
D17*
X110604298Y-90400000D02*
X106517282Y-90400000D01*
X106517282Y-90400000D02*
X103403005Y-93514277D01*
X116470000Y-91480000D02*
X115389988Y-90399988D01*
X110604310Y-90399988D02*
X110604298Y-90400000D01*
X115389988Y-90399988D02*
X110604310Y-90399988D01*
X116470000Y-92300000D02*
X116470000Y-91480000D01*
D20*
X100800000Y-100700000D02*
X100200000Y-101300000D01*
X100200000Y-101300000D02*
X100200000Y-106500000D01*
X107600000Y-100700000D02*
X100800000Y-100700000D01*
X107700000Y-100600000D02*
X107600000Y-100700000D01*
X108300000Y-100000000D02*
X107700000Y-100600000D01*
X108300000Y-97639264D02*
X108300000Y-100000000D01*
X108100000Y-97015000D02*
X108100000Y-97439264D01*
X108100000Y-97439264D02*
X108300000Y-97639264D01*
X99600000Y-101400000D02*
X99600000Y-108600000D01*
X99600000Y-108600000D02*
X99700000Y-108700000D01*
X100700000Y-100300000D02*
X99600000Y-101400000D01*
X102912794Y-100300000D02*
X100700000Y-100300000D01*
X107500000Y-100312402D02*
X102925196Y-100312402D01*
X102925196Y-100312402D02*
X102912794Y-100300000D01*
X108000000Y-99400000D02*
X108000000Y-99812402D01*
X108000000Y-99812402D02*
X107500000Y-100312402D01*
X107880001Y-99280001D02*
X108000000Y-99400000D01*
X107300000Y-97015000D02*
X107880001Y-97595001D01*
X107880001Y-97595001D02*
X107880001Y-99280001D01*
D17*
X107697862Y-93939087D02*
X107697862Y-93514823D01*
X107697862Y-95151564D02*
X107697862Y-93939087D01*
X108799987Y-96253689D02*
X107697862Y-95151564D01*
X108799987Y-100200013D02*
X108799987Y-96253689D01*
X104500000Y-104500000D02*
X108799987Y-100200013D01*
X110769987Y-90800011D02*
X107005275Y-90800011D01*
X110769999Y-90799999D02*
X110769987Y-90800011D01*
X114519999Y-90799999D02*
X110769999Y-90799999D01*
X115200000Y-91480000D02*
X114519999Y-90799999D01*
X103505286Y-94300000D02*
X103000000Y-94300000D01*
X107005275Y-90800011D02*
X103505286Y-94300000D01*
X115200000Y-92300000D02*
X115200000Y-91480000D01*
X104500000Y-101250000D02*
X102550000Y-101250000D01*
X109099998Y-100311998D02*
X109099998Y-102751458D01*
X109099998Y-102751458D02*
X107494203Y-104357253D01*
X109199998Y-94818438D02*
X109199998Y-100211998D01*
X108400843Y-94019283D02*
X109199998Y-94818438D01*
X109199998Y-100211998D02*
X109099998Y-100311998D01*
D20*
X107750000Y-106000000D02*
X107750000Y-105575736D01*
X107750000Y-105575736D02*
X107174264Y-105000000D01*
X107174264Y-105000000D02*
X106500000Y-105000000D01*
D21*
G36*
X103298650Y-92579185D02*
X103217838Y-92579115D01*
X102874062Y-92721160D01*
X102610813Y-92983950D01*
X102468167Y-93327478D01*
X102468008Y-93509927D01*
X102207808Y-93769673D01*
X102065162Y-94113201D01*
X102064838Y-94485167D01*
X102206883Y-94828943D01*
X102469673Y-95092192D01*
X102574735Y-95135818D01*
X102145645Y-95564908D01*
X102064833Y-95564838D01*
X101721057Y-95706883D01*
X101662838Y-95765000D01*
X101337419Y-95765000D01*
X101280327Y-95707808D01*
X100936799Y-95565162D01*
X100564833Y-95564838D01*
X100221057Y-95706883D01*
X99957808Y-95969673D01*
X99916602Y-96068906D01*
X98847077Y-94999381D01*
X98848157Y-94997765D01*
X98897440Y-94750000D01*
X98897440Y-93750000D01*
X98848157Y-93502235D01*
X98805135Y-93437849D01*
X98820839Y-93414346D01*
X98907236Y-92980000D01*
X98820839Y-92545654D01*
X98574802Y-92177434D01*
X98217545Y-91938722D01*
X101043393Y-91938722D01*
X101185438Y-92282498D01*
X101448228Y-92545747D01*
X101791756Y-92688393D01*
X102163722Y-92688717D01*
X102507498Y-92546672D01*
X102770747Y-92283882D01*
X102913393Y-91940354D01*
X102913717Y-91568388D01*
X102771672Y-91224612D01*
X102508882Y-90961363D01*
X102165354Y-90818717D01*
X101793388Y-90818393D01*
X101449612Y-90960438D01*
X101186363Y-91223228D01*
X101043717Y-91566756D01*
X101043393Y-91938722D01*
X98217545Y-91938722D01*
X98206582Y-91931397D01*
X97772236Y-91845000D01*
X97727764Y-91845000D01*
X97293418Y-91931397D01*
X96925198Y-92177434D01*
X96679161Y-92545654D01*
X96592764Y-92980000D01*
X96679161Y-93414346D01*
X96694865Y-93437849D01*
X96651843Y-93502235D01*
X96602560Y-93750000D01*
X96602560Y-94750000D01*
X96651843Y-94997765D01*
X96792191Y-95207809D01*
X97002235Y-95348157D01*
X97116655Y-95370916D01*
X97212599Y-95514507D01*
X99485472Y-97787380D01*
X99732034Y-97952127D01*
X100022873Y-98009979D01*
X102003037Y-98009979D01*
X102035173Y-98042171D01*
X102378701Y-98184817D01*
X102750667Y-98185141D01*
X103094443Y-98043096D01*
X103357692Y-97780306D01*
X103500338Y-97436778D01*
X103500662Y-97064812D01*
X103358617Y-96721036D01*
X103213640Y-96575806D01*
X103854447Y-95935000D01*
X106900000Y-95935000D01*
X107181272Y-95879051D01*
X107303939Y-95797087D01*
X107658176Y-96151324D01*
X107486799Y-96080162D01*
X107114833Y-96079838D01*
X106771057Y-96221883D01*
X106507808Y-96484673D01*
X106365162Y-96828201D01*
X106364838Y-97200167D01*
X106506883Y-97543943D01*
X106769673Y-97807192D01*
X107113201Y-97949838D01*
X107165001Y-97949883D01*
X107165001Y-98876747D01*
X106971057Y-98956883D01*
X106937882Y-98990000D01*
X103274915Y-98990000D01*
X103143144Y-98671089D01*
X102880354Y-98407840D01*
X102536826Y-98265194D01*
X102164860Y-98264870D01*
X101821084Y-98406915D01*
X101557835Y-98669705D01*
X101415189Y-99013233D01*
X101414865Y-99385199D01*
X101497421Y-99585000D01*
X100700000Y-99585000D01*
X100426381Y-99639426D01*
X100207644Y-99785582D01*
X100194419Y-99794419D01*
X99094419Y-100894419D01*
X98939426Y-101126381D01*
X98885000Y-101400000D01*
X98885000Y-108224600D01*
X98765162Y-108513201D01*
X98764838Y-108885167D01*
X98906883Y-109228943D01*
X99169673Y-109492192D01*
X99513201Y-109634838D01*
X99885167Y-109635162D01*
X100228943Y-109493117D01*
X100492192Y-109230327D01*
X100634838Y-108886799D01*
X100635162Y-108514833D01*
X100493117Y-108171057D01*
X100315000Y-107992629D01*
X100315000Y-107435101D01*
X100385167Y-107435162D01*
X100728943Y-107293117D01*
X100992192Y-107030327D01*
X101134838Y-106686799D01*
X101135162Y-106314833D01*
X100993117Y-105971057D01*
X100915000Y-105892804D01*
X100915000Y-104911014D01*
X101213201Y-105034838D01*
X101585167Y-105035162D01*
X101928943Y-104893117D01*
X102192192Y-104630327D01*
X102334838Y-104286799D01*
X102334910Y-104204537D01*
X103205882Y-103333564D01*
X103362606Y-103333701D01*
X103706382Y-103191656D01*
X103969631Y-102928866D01*
X104112277Y-102585338D01*
X104112601Y-102213372D01*
X104056824Y-102078380D01*
X104313201Y-102184838D01*
X104685167Y-102185162D01*
X105028943Y-102043117D01*
X105292192Y-101780327D01*
X105434838Y-101436799D01*
X105434857Y-101415000D01*
X106545553Y-101415000D01*
X104395646Y-103564908D01*
X104314833Y-103564838D01*
X103971057Y-103706883D01*
X103707808Y-103969673D01*
X103565162Y-104313201D01*
X103564838Y-104685167D01*
X103706883Y-105028943D01*
X103969673Y-105292192D01*
X104313201Y-105434838D01*
X104685167Y-105435162D01*
X105028943Y-105293117D01*
X105292192Y-105030327D01*
X105434838Y-104686799D01*
X105434910Y-104604536D01*
X108364998Y-101674449D01*
X108364998Y-102447011D01*
X107389848Y-103422161D01*
X107309036Y-103422091D01*
X106965260Y-103564136D01*
X106702011Y-103826926D01*
X106657078Y-103935136D01*
X106314833Y-103934838D01*
X105971057Y-104076883D01*
X105707808Y-104339673D01*
X105565162Y-104683201D01*
X105564838Y-105055167D01*
X105645364Y-105250055D01*
X105565162Y-105443201D01*
X105564838Y-105815167D01*
X105706883Y-106158943D01*
X105969673Y-106422192D01*
X106313201Y-106564838D01*
X106685167Y-106565162D01*
X106930042Y-106463982D01*
X106956883Y-106528943D01*
X107219673Y-106792192D01*
X107563201Y-106934838D01*
X107935167Y-106935162D01*
X108278943Y-106793117D01*
X108542192Y-106530327D01*
X108684838Y-106186799D01*
X108685162Y-105814833D01*
X108543117Y-105471057D01*
X108419558Y-105347282D01*
X108410574Y-105302117D01*
X108346940Y-105206883D01*
X108255582Y-105070155D01*
X108179608Y-104994181D01*
X108286395Y-104887580D01*
X108429041Y-104544052D01*
X108429113Y-104461790D01*
X109619721Y-103271182D01*
X109779049Y-103032730D01*
X109799418Y-102930327D01*
X109834998Y-102751458D01*
X109834998Y-102402365D01*
X109913201Y-102434838D01*
X109924690Y-102434848D01*
X110444921Y-102955079D01*
X110699593Y-103125245D01*
X111000000Y-103185000D01*
X111962494Y-103185000D01*
X111969673Y-103192192D01*
X112313201Y-103334838D01*
X112685167Y-103335162D01*
X113028943Y-103193117D01*
X113292192Y-102930327D01*
X113434838Y-102586799D01*
X113435162Y-102214833D01*
X113293117Y-101871057D01*
X113030327Y-101607808D01*
X112686799Y-101465162D01*
X112314833Y-101464838D01*
X111971057Y-101606883D01*
X111962926Y-101615000D01*
X111325158Y-101615000D01*
X111174802Y-101464644D01*
X112178846Y-100460601D01*
X112510895Y-100460890D01*
X112854671Y-100318845D01*
X113117920Y-100056055D01*
X113260566Y-99712527D01*
X113260890Y-99340561D01*
X113118845Y-98996785D01*
X112856055Y-98733536D01*
X112512527Y-98590890D01*
X112140561Y-98590566D01*
X111796785Y-98732611D01*
X111533536Y-98995401D01*
X111511086Y-99049468D01*
X109995645Y-100564908D01*
X109914833Y-100564838D01*
X109834998Y-100597825D01*
X109834998Y-100559197D01*
X109879049Y-100493270D01*
X109912245Y-100326382D01*
X109934998Y-100211998D01*
X109934998Y-96735118D01*
X109985167Y-96735162D01*
X110328943Y-96593117D01*
X110375000Y-96547140D01*
X110375000Y-97436309D01*
X110471673Y-97669698D01*
X110650301Y-97848327D01*
X110883690Y-97945000D01*
X111104250Y-97945000D01*
X111263000Y-97786250D01*
X111263000Y-96237000D01*
X111517000Y-96237000D01*
X111517000Y-97786250D01*
X111675750Y-97945000D01*
X111896310Y-97945000D01*
X112025000Y-97891695D01*
X112153690Y-97945000D01*
X112374250Y-97945000D01*
X112533000Y-97786250D01*
X112533000Y-96237000D01*
X112787000Y-96237000D01*
X112787000Y-97786250D01*
X112945750Y-97945000D01*
X113166310Y-97945000D01*
X113295000Y-97891695D01*
X113423690Y-97945000D01*
X113644250Y-97945000D01*
X113803000Y-97786250D01*
X113803000Y-96237000D01*
X112787000Y-96237000D01*
X112533000Y-96237000D01*
X111517000Y-96237000D01*
X111263000Y-96237000D01*
X111243000Y-96237000D01*
X111243000Y-95983000D01*
X111263000Y-95983000D01*
X111263000Y-94433750D01*
X111517000Y-94433750D01*
X111517000Y-95983000D01*
X112533000Y-95983000D01*
X112533000Y-94433750D01*
X112787000Y-94433750D01*
X112787000Y-95983000D01*
X113803000Y-95983000D01*
X113803000Y-94433750D01*
X114057000Y-94433750D01*
X114057000Y-95983000D01*
X115073000Y-95983000D01*
X115073000Y-94433750D01*
X114914250Y-94275000D01*
X114693690Y-94275000D01*
X114565000Y-94328305D01*
X114436310Y-94275000D01*
X114215750Y-94275000D01*
X114057000Y-94433750D01*
X113803000Y-94433750D01*
X113644250Y-94275000D01*
X113423690Y-94275000D01*
X113295000Y-94328305D01*
X113166310Y-94275000D01*
X112945750Y-94275000D01*
X112787000Y-94433750D01*
X112533000Y-94433750D01*
X112374250Y-94275000D01*
X112153690Y-94275000D01*
X112025000Y-94328305D01*
X111896310Y-94275000D01*
X111675750Y-94275000D01*
X111517000Y-94433750D01*
X111263000Y-94433750D01*
X111104250Y-94275000D01*
X110883690Y-94275000D01*
X110735000Y-94336589D01*
X110735000Y-94187245D01*
X110813941Y-94108442D01*
X111010000Y-94147440D01*
X111770000Y-94147440D01*
X112017765Y-94098157D01*
X112025000Y-94093323D01*
X112032235Y-94098157D01*
X112280000Y-94147440D01*
X113040000Y-94147440D01*
X113287765Y-94098157D01*
X113295000Y-94093323D01*
X113302235Y-94098157D01*
X113550000Y-94147440D01*
X114310000Y-94147440D01*
X114557765Y-94098157D01*
X114565000Y-94093323D01*
X114572235Y-94098157D01*
X114820000Y-94147440D01*
X115580000Y-94147440D01*
X115593591Y-94144737D01*
X115565162Y-94213201D01*
X115565108Y-94275000D01*
X115485750Y-94275000D01*
X115327000Y-94433750D01*
X115327000Y-95983000D01*
X115347000Y-95983000D01*
X115347000Y-96237000D01*
X115327000Y-96237000D01*
X115327000Y-96257000D01*
X115073000Y-96257000D01*
X115073000Y-96237000D01*
X114057000Y-96237000D01*
X114057000Y-97786250D01*
X114215750Y-97945000D01*
X114436310Y-97945000D01*
X114565000Y-97891695D01*
X114608995Y-97909918D01*
X114064001Y-98453961D01*
X113715397Y-99293491D01*
X113714604Y-100202521D01*
X114061742Y-101042658D01*
X114703961Y-101685999D01*
X115543491Y-102034603D01*
X116452521Y-102035396D01*
X117290000Y-101689356D01*
X117290000Y-112930070D01*
X117255074Y-113105655D01*
X117195225Y-113195226D01*
X117105655Y-113255074D01*
X116930070Y-113290000D01*
X95069930Y-113290000D01*
X94894345Y-113255074D01*
X94804774Y-113195225D01*
X94744926Y-113105655D01*
X94710000Y-112930070D01*
X94710000Y-106710000D01*
X94735907Y-106710000D01*
X94848946Y-107278285D01*
X95170853Y-107760054D01*
X95500026Y-107980000D01*
X95170853Y-108199946D01*
X94848946Y-108681715D01*
X94735907Y-109250000D01*
X94848946Y-109818285D01*
X95170853Y-110300054D01*
X95214777Y-110329403D01*
X95152235Y-110341843D01*
X94942191Y-110482191D01*
X94801843Y-110692235D01*
X94752560Y-110940000D01*
X94752560Y-112640000D01*
X94801843Y-112887765D01*
X94942191Y-113097809D01*
X95152235Y-113238157D01*
X95400000Y-113287440D01*
X97100000Y-113287440D01*
X97347765Y-113238157D01*
X97557809Y-113097809D01*
X97698157Y-112887765D01*
X97747440Y-112640000D01*
X97747440Y-112483819D01*
X97895333Y-112385000D01*
X101300000Y-112385000D01*
X101600406Y-112325245D01*
X101855079Y-112155079D01*
X102025245Y-111900406D01*
X102085000Y-111600000D01*
X102085000Y-111165158D01*
X104215005Y-109035153D01*
X104225167Y-109035162D01*
X104568943Y-108893117D01*
X104577074Y-108885000D01*
X110962494Y-108885000D01*
X110969673Y-108892192D01*
X111313201Y-109034838D01*
X111685167Y-109035162D01*
X112028943Y-108893117D01*
X112292192Y-108630327D01*
X112434838Y-108286799D01*
X112435162Y-107914833D01*
X112293117Y-107571057D01*
X112030327Y-107307808D01*
X111686799Y-107165162D01*
X111314833Y-107164838D01*
X110971057Y-107306883D01*
X110962926Y-107315000D01*
X104577506Y-107315000D01*
X104570327Y-107307808D01*
X104226799Y-107165162D01*
X103854833Y-107164838D01*
X103511057Y-107306883D01*
X103247808Y-107569673D01*
X103105162Y-107913201D01*
X103105152Y-107924690D01*
X100744921Y-110284921D01*
X100574755Y-110539593D01*
X100535886Y-110735000D01*
X100519973Y-110815000D01*
X97722576Y-110815000D01*
X97698157Y-110692235D01*
X97557809Y-110482191D01*
X97347765Y-110341843D01*
X97285223Y-110329403D01*
X97329147Y-110300054D01*
X97651054Y-109818285D01*
X97764093Y-109250000D01*
X97651054Y-108681715D01*
X97329147Y-108199946D01*
X96999974Y-107980000D01*
X97329147Y-107760054D01*
X97651054Y-107278285D01*
X97764093Y-106710000D01*
X97651054Y-106141715D01*
X97329147Y-105659946D01*
X96988447Y-105432298D01*
X97131358Y-105365183D01*
X97521645Y-104936924D01*
X97691476Y-104526890D01*
X97570155Y-104297000D01*
X96377000Y-104297000D01*
X96377000Y-104317000D01*
X96123000Y-104317000D01*
X96123000Y-104297000D01*
X94929845Y-104297000D01*
X94808524Y-104526890D01*
X94978355Y-104936924D01*
X95368642Y-105365183D01*
X95511553Y-105432298D01*
X95170853Y-105659946D01*
X94848946Y-106141715D01*
X94735907Y-106710000D01*
X94710000Y-106710000D01*
X94710000Y-103813110D01*
X94808524Y-103813110D01*
X94929845Y-104043000D01*
X96123000Y-104043000D01*
X96123000Y-102849181D01*
X96377000Y-102849181D01*
X96377000Y-104043000D01*
X97570155Y-104043000D01*
X97691476Y-103813110D01*
X97521645Y-103403076D01*
X97131358Y-102974817D01*
X96606892Y-102728514D01*
X96377000Y-102849181D01*
X96123000Y-102849181D01*
X95893108Y-102728514D01*
X95368642Y-102974817D01*
X94978355Y-103403076D01*
X94808524Y-103813110D01*
X94710000Y-103813110D01*
X94710000Y-101688507D01*
X95543491Y-102034603D01*
X96452521Y-102035396D01*
X97292658Y-101688258D01*
X97935999Y-101046039D01*
X98284603Y-100206509D01*
X98285396Y-99297479D01*
X97938258Y-98457342D01*
X97296039Y-97814001D01*
X96456509Y-97465397D01*
X95547479Y-97464604D01*
X94710000Y-97810644D01*
X94710000Y-91069930D01*
X94744926Y-90894345D01*
X94804774Y-90804775D01*
X94894345Y-90744926D01*
X95069930Y-90710000D01*
X105167835Y-90710000D01*
X103298650Y-92579185D01*
X103298650Y-92579185D01*
G37*
X103298650Y-92579185D02*
X103217838Y-92579115D01*
X102874062Y-92721160D01*
X102610813Y-92983950D01*
X102468167Y-93327478D01*
X102468008Y-93509927D01*
X102207808Y-93769673D01*
X102065162Y-94113201D01*
X102064838Y-94485167D01*
X102206883Y-94828943D01*
X102469673Y-95092192D01*
X102574735Y-95135818D01*
X102145645Y-95564908D01*
X102064833Y-95564838D01*
X101721057Y-95706883D01*
X101662838Y-95765000D01*
X101337419Y-95765000D01*
X101280327Y-95707808D01*
X100936799Y-95565162D01*
X100564833Y-95564838D01*
X100221057Y-95706883D01*
X99957808Y-95969673D01*
X99916602Y-96068906D01*
X98847077Y-94999381D01*
X98848157Y-94997765D01*
X98897440Y-94750000D01*
X98897440Y-93750000D01*
X98848157Y-93502235D01*
X98805135Y-93437849D01*
X98820839Y-93414346D01*
X98907236Y-92980000D01*
X98820839Y-92545654D01*
X98574802Y-92177434D01*
X98217545Y-91938722D01*
X101043393Y-91938722D01*
X101185438Y-92282498D01*
X101448228Y-92545747D01*
X101791756Y-92688393D01*
X102163722Y-92688717D01*
X102507498Y-92546672D01*
X102770747Y-92283882D01*
X102913393Y-91940354D01*
X102913717Y-91568388D01*
X102771672Y-91224612D01*
X102508882Y-90961363D01*
X102165354Y-90818717D01*
X101793388Y-90818393D01*
X101449612Y-90960438D01*
X101186363Y-91223228D01*
X101043717Y-91566756D01*
X101043393Y-91938722D01*
X98217545Y-91938722D01*
X98206582Y-91931397D01*
X97772236Y-91845000D01*
X97727764Y-91845000D01*
X97293418Y-91931397D01*
X96925198Y-92177434D01*
X96679161Y-92545654D01*
X96592764Y-92980000D01*
X96679161Y-93414346D01*
X96694865Y-93437849D01*
X96651843Y-93502235D01*
X96602560Y-93750000D01*
X96602560Y-94750000D01*
X96651843Y-94997765D01*
X96792191Y-95207809D01*
X97002235Y-95348157D01*
X97116655Y-95370916D01*
X97212599Y-95514507D01*
X99485472Y-97787380D01*
X99732034Y-97952127D01*
X100022873Y-98009979D01*
X102003037Y-98009979D01*
X102035173Y-98042171D01*
X102378701Y-98184817D01*
X102750667Y-98185141D01*
X103094443Y-98043096D01*
X103357692Y-97780306D01*
X103500338Y-97436778D01*
X103500662Y-97064812D01*
X103358617Y-96721036D01*
X103213640Y-96575806D01*
X103854447Y-95935000D01*
X106900000Y-95935000D01*
X107181272Y-95879051D01*
X107303939Y-95797087D01*
X107658176Y-96151324D01*
X107486799Y-96080162D01*
X107114833Y-96079838D01*
X106771057Y-96221883D01*
X106507808Y-96484673D01*
X106365162Y-96828201D01*
X106364838Y-97200167D01*
X106506883Y-97543943D01*
X106769673Y-97807192D01*
X107113201Y-97949838D01*
X107165001Y-97949883D01*
X107165001Y-98876747D01*
X106971057Y-98956883D01*
X106937882Y-98990000D01*
X103274915Y-98990000D01*
X103143144Y-98671089D01*
X102880354Y-98407840D01*
X102536826Y-98265194D01*
X102164860Y-98264870D01*
X101821084Y-98406915D01*
X101557835Y-98669705D01*
X101415189Y-99013233D01*
X101414865Y-99385199D01*
X101497421Y-99585000D01*
X100700000Y-99585000D01*
X100426381Y-99639426D01*
X100207644Y-99785582D01*
X100194419Y-99794419D01*
X99094419Y-100894419D01*
X98939426Y-101126381D01*
X98885000Y-101400000D01*
X98885000Y-108224600D01*
X98765162Y-108513201D01*
X98764838Y-108885167D01*
X98906883Y-109228943D01*
X99169673Y-109492192D01*
X99513201Y-109634838D01*
X99885167Y-109635162D01*
X100228943Y-109493117D01*
X100492192Y-109230327D01*
X100634838Y-108886799D01*
X100635162Y-108514833D01*
X100493117Y-108171057D01*
X100315000Y-107992629D01*
X100315000Y-107435101D01*
X100385167Y-107435162D01*
X100728943Y-107293117D01*
X100992192Y-107030327D01*
X101134838Y-106686799D01*
X101135162Y-106314833D01*
X100993117Y-105971057D01*
X100915000Y-105892804D01*
X100915000Y-104911014D01*
X101213201Y-105034838D01*
X101585167Y-105035162D01*
X101928943Y-104893117D01*
X102192192Y-104630327D01*
X102334838Y-104286799D01*
X102334910Y-104204537D01*
X103205882Y-103333564D01*
X103362606Y-103333701D01*
X103706382Y-103191656D01*
X103969631Y-102928866D01*
X104112277Y-102585338D01*
X104112601Y-102213372D01*
X104056824Y-102078380D01*
X104313201Y-102184838D01*
X104685167Y-102185162D01*
X105028943Y-102043117D01*
X105292192Y-101780327D01*
X105434838Y-101436799D01*
X105434857Y-101415000D01*
X106545553Y-101415000D01*
X104395646Y-103564908D01*
X104314833Y-103564838D01*
X103971057Y-103706883D01*
X103707808Y-103969673D01*
X103565162Y-104313201D01*
X103564838Y-104685167D01*
X103706883Y-105028943D01*
X103969673Y-105292192D01*
X104313201Y-105434838D01*
X104685167Y-105435162D01*
X105028943Y-105293117D01*
X105292192Y-105030327D01*
X105434838Y-104686799D01*
X105434910Y-104604536D01*
X108364998Y-101674449D01*
X108364998Y-102447011D01*
X107389848Y-103422161D01*
X107309036Y-103422091D01*
X106965260Y-103564136D01*
X106702011Y-103826926D01*
X106657078Y-103935136D01*
X106314833Y-103934838D01*
X105971057Y-104076883D01*
X105707808Y-104339673D01*
X105565162Y-104683201D01*
X105564838Y-105055167D01*
X105645364Y-105250055D01*
X105565162Y-105443201D01*
X105564838Y-105815167D01*
X105706883Y-106158943D01*
X105969673Y-106422192D01*
X106313201Y-106564838D01*
X106685167Y-106565162D01*
X106930042Y-106463982D01*
X106956883Y-106528943D01*
X107219673Y-106792192D01*
X107563201Y-106934838D01*
X107935167Y-106935162D01*
X108278943Y-106793117D01*
X108542192Y-106530327D01*
X108684838Y-106186799D01*
X108685162Y-105814833D01*
X108543117Y-105471057D01*
X108419558Y-105347282D01*
X108410574Y-105302117D01*
X108346940Y-105206883D01*
X108255582Y-105070155D01*
X108179608Y-104994181D01*
X108286395Y-104887580D01*
X108429041Y-104544052D01*
X108429113Y-104461790D01*
X109619721Y-103271182D01*
X109779049Y-103032730D01*
X109799418Y-102930327D01*
X109834998Y-102751458D01*
X109834998Y-102402365D01*
X109913201Y-102434838D01*
X109924690Y-102434848D01*
X110444921Y-102955079D01*
X110699593Y-103125245D01*
X111000000Y-103185000D01*
X111962494Y-103185000D01*
X111969673Y-103192192D01*
X112313201Y-103334838D01*
X112685167Y-103335162D01*
X113028943Y-103193117D01*
X113292192Y-102930327D01*
X113434838Y-102586799D01*
X113435162Y-102214833D01*
X113293117Y-101871057D01*
X113030327Y-101607808D01*
X112686799Y-101465162D01*
X112314833Y-101464838D01*
X111971057Y-101606883D01*
X111962926Y-101615000D01*
X111325158Y-101615000D01*
X111174802Y-101464644D01*
X112178846Y-100460601D01*
X112510895Y-100460890D01*
X112854671Y-100318845D01*
X113117920Y-100056055D01*
X113260566Y-99712527D01*
X113260890Y-99340561D01*
X113118845Y-98996785D01*
X112856055Y-98733536D01*
X112512527Y-98590890D01*
X112140561Y-98590566D01*
X111796785Y-98732611D01*
X111533536Y-98995401D01*
X111511086Y-99049468D01*
X109995645Y-100564908D01*
X109914833Y-100564838D01*
X109834998Y-100597825D01*
X109834998Y-100559197D01*
X109879049Y-100493270D01*
X109912245Y-100326382D01*
X109934998Y-100211998D01*
X109934998Y-96735118D01*
X109985167Y-96735162D01*
X110328943Y-96593117D01*
X110375000Y-96547140D01*
X110375000Y-97436309D01*
X110471673Y-97669698D01*
X110650301Y-97848327D01*
X110883690Y-97945000D01*
X111104250Y-97945000D01*
X111263000Y-97786250D01*
X111263000Y-96237000D01*
X111517000Y-96237000D01*
X111517000Y-97786250D01*
X111675750Y-97945000D01*
X111896310Y-97945000D01*
X112025000Y-97891695D01*
X112153690Y-97945000D01*
X112374250Y-97945000D01*
X112533000Y-97786250D01*
X112533000Y-96237000D01*
X112787000Y-96237000D01*
X112787000Y-97786250D01*
X112945750Y-97945000D01*
X113166310Y-97945000D01*
X113295000Y-97891695D01*
X113423690Y-97945000D01*
X113644250Y-97945000D01*
X113803000Y-97786250D01*
X113803000Y-96237000D01*
X112787000Y-96237000D01*
X112533000Y-96237000D01*
X111517000Y-96237000D01*
X111263000Y-96237000D01*
X111243000Y-96237000D01*
X111243000Y-95983000D01*
X111263000Y-95983000D01*
X111263000Y-94433750D01*
X111517000Y-94433750D01*
X111517000Y-95983000D01*
X112533000Y-95983000D01*
X112533000Y-94433750D01*
X112787000Y-94433750D01*
X112787000Y-95983000D01*
X113803000Y-95983000D01*
X113803000Y-94433750D01*
X114057000Y-94433750D01*
X114057000Y-95983000D01*
X115073000Y-95983000D01*
X115073000Y-94433750D01*
X114914250Y-94275000D01*
X114693690Y-94275000D01*
X114565000Y-94328305D01*
X114436310Y-94275000D01*
X114215750Y-94275000D01*
X114057000Y-94433750D01*
X113803000Y-94433750D01*
X113644250Y-94275000D01*
X113423690Y-94275000D01*
X113295000Y-94328305D01*
X113166310Y-94275000D01*
X112945750Y-94275000D01*
X112787000Y-94433750D01*
X112533000Y-94433750D01*
X112374250Y-94275000D01*
X112153690Y-94275000D01*
X112025000Y-94328305D01*
X111896310Y-94275000D01*
X111675750Y-94275000D01*
X111517000Y-94433750D01*
X111263000Y-94433750D01*
X111104250Y-94275000D01*
X110883690Y-94275000D01*
X110735000Y-94336589D01*
X110735000Y-94187245D01*
X110813941Y-94108442D01*
X111010000Y-94147440D01*
X111770000Y-94147440D01*
X112017765Y-94098157D01*
X112025000Y-94093323D01*
X112032235Y-94098157D01*
X112280000Y-94147440D01*
X113040000Y-94147440D01*
X113287765Y-94098157D01*
X113295000Y-94093323D01*
X113302235Y-94098157D01*
X113550000Y-94147440D01*
X114310000Y-94147440D01*
X114557765Y-94098157D01*
X114565000Y-94093323D01*
X114572235Y-94098157D01*
X114820000Y-94147440D01*
X115580000Y-94147440D01*
X115593591Y-94144737D01*
X115565162Y-94213201D01*
X115565108Y-94275000D01*
X115485750Y-94275000D01*
X115327000Y-94433750D01*
X115327000Y-95983000D01*
X115347000Y-95983000D01*
X115347000Y-96237000D01*
X115327000Y-96237000D01*
X115327000Y-96257000D01*
X115073000Y-96257000D01*
X115073000Y-96237000D01*
X114057000Y-96237000D01*
X114057000Y-97786250D01*
X114215750Y-97945000D01*
X114436310Y-97945000D01*
X114565000Y-97891695D01*
X114608995Y-97909918D01*
X114064001Y-98453961D01*
X113715397Y-99293491D01*
X113714604Y-100202521D01*
X114061742Y-101042658D01*
X114703961Y-101685999D01*
X115543491Y-102034603D01*
X116452521Y-102035396D01*
X117290000Y-101689356D01*
X117290000Y-112930070D01*
X117255074Y-113105655D01*
X117195225Y-113195226D01*
X117105655Y-113255074D01*
X116930070Y-113290000D01*
X95069930Y-113290000D01*
X94894345Y-113255074D01*
X94804774Y-113195225D01*
X94744926Y-113105655D01*
X94710000Y-112930070D01*
X94710000Y-106710000D01*
X94735907Y-106710000D01*
X94848946Y-107278285D01*
X95170853Y-107760054D01*
X95500026Y-107980000D01*
X95170853Y-108199946D01*
X94848946Y-108681715D01*
X94735907Y-109250000D01*
X94848946Y-109818285D01*
X95170853Y-110300054D01*
X95214777Y-110329403D01*
X95152235Y-110341843D01*
X94942191Y-110482191D01*
X94801843Y-110692235D01*
X94752560Y-110940000D01*
X94752560Y-112640000D01*
X94801843Y-112887765D01*
X94942191Y-113097809D01*
X95152235Y-113238157D01*
X95400000Y-113287440D01*
X97100000Y-113287440D01*
X97347765Y-113238157D01*
X97557809Y-113097809D01*
X97698157Y-112887765D01*
X97747440Y-112640000D01*
X97747440Y-112483819D01*
X97895333Y-112385000D01*
X101300000Y-112385000D01*
X101600406Y-112325245D01*
X101855079Y-112155079D01*
X102025245Y-111900406D01*
X102085000Y-111600000D01*
X102085000Y-111165158D01*
X104215005Y-109035153D01*
X104225167Y-109035162D01*
X104568943Y-108893117D01*
X104577074Y-108885000D01*
X110962494Y-108885000D01*
X110969673Y-108892192D01*
X111313201Y-109034838D01*
X111685167Y-109035162D01*
X112028943Y-108893117D01*
X112292192Y-108630327D01*
X112434838Y-108286799D01*
X112435162Y-107914833D01*
X112293117Y-107571057D01*
X112030327Y-107307808D01*
X111686799Y-107165162D01*
X111314833Y-107164838D01*
X110971057Y-107306883D01*
X110962926Y-107315000D01*
X104577506Y-107315000D01*
X104570327Y-107307808D01*
X104226799Y-107165162D01*
X103854833Y-107164838D01*
X103511057Y-107306883D01*
X103247808Y-107569673D01*
X103105162Y-107913201D01*
X103105152Y-107924690D01*
X100744921Y-110284921D01*
X100574755Y-110539593D01*
X100535886Y-110735000D01*
X100519973Y-110815000D01*
X97722576Y-110815000D01*
X97698157Y-110692235D01*
X97557809Y-110482191D01*
X97347765Y-110341843D01*
X97285223Y-110329403D01*
X97329147Y-110300054D01*
X97651054Y-109818285D01*
X97764093Y-109250000D01*
X97651054Y-108681715D01*
X97329147Y-108199946D01*
X96999974Y-107980000D01*
X97329147Y-107760054D01*
X97651054Y-107278285D01*
X97764093Y-106710000D01*
X97651054Y-106141715D01*
X97329147Y-105659946D01*
X96988447Y-105432298D01*
X97131358Y-105365183D01*
X97521645Y-104936924D01*
X97691476Y-104526890D01*
X97570155Y-104297000D01*
X96377000Y-104297000D01*
X96377000Y-104317000D01*
X96123000Y-104317000D01*
X96123000Y-104297000D01*
X94929845Y-104297000D01*
X94808524Y-104526890D01*
X94978355Y-104936924D01*
X95368642Y-105365183D01*
X95511553Y-105432298D01*
X95170853Y-105659946D01*
X94848946Y-106141715D01*
X94735907Y-106710000D01*
X94710000Y-106710000D01*
X94710000Y-103813110D01*
X94808524Y-103813110D01*
X94929845Y-104043000D01*
X96123000Y-104043000D01*
X96123000Y-102849181D01*
X96377000Y-102849181D01*
X96377000Y-104043000D01*
X97570155Y-104043000D01*
X97691476Y-103813110D01*
X97521645Y-103403076D01*
X97131358Y-102974817D01*
X96606892Y-102728514D01*
X96377000Y-102849181D01*
X96123000Y-102849181D01*
X95893108Y-102728514D01*
X95368642Y-102974817D01*
X94978355Y-103403076D01*
X94808524Y-103813110D01*
X94710000Y-103813110D01*
X94710000Y-101688507D01*
X95543491Y-102034603D01*
X96452521Y-102035396D01*
X97292658Y-101688258D01*
X97935999Y-101046039D01*
X98284603Y-100206509D01*
X98285396Y-99297479D01*
X97938258Y-98457342D01*
X97296039Y-97814001D01*
X96456509Y-97465397D01*
X95547479Y-97464604D01*
X94710000Y-97810644D01*
X94710000Y-91069930D01*
X94744926Y-90894345D01*
X94804774Y-90804775D01*
X94894345Y-90744926D01*
X95069930Y-90710000D01*
X105167835Y-90710000D01*
X103298650Y-92579185D01*
M02*
