G04 #@! TF.GenerationSoftware,KiCad,Pcbnew,(2017-08-19 revision a20cce075)-master*
G04 #@! TF.CreationDate,2017-08-26T17:51:18+03:00*
G04 #@! TF.ProjectId,distance-sensor-vl53l0x,64697374616E63652D73656E736F722D,rev?*
G04 #@! TF.SameCoordinates,Original*
G04 #@! TF.FileFunction,Legend,Top*
G04 #@! TF.FilePolarity,Positive*
%FSLAX46Y46*%
G04 Gerber Fmt 4.6, Leading zero omitted, Abs format (unit mm)*
G04 Created by KiCad (PCBNEW (2017-08-19 revision a20cce075)-master) date Sat Aug 26 17:51:18 2017*
%MOMM*%
%LPD*%
G01*
G04 APERTURE LIST*
%ADD10C,0.300000*%
%ADD11C,0.120000*%
%ADD12C,0.150000*%
G04 APERTURE END LIST*
D10*
X94698571Y-92118571D02*
X94698571Y-90618571D01*
X95055714Y-90618571D01*
X95270000Y-90690000D01*
X95412857Y-90832857D01*
X95484285Y-90975714D01*
X95555714Y-91261428D01*
X95555714Y-91475714D01*
X95484285Y-91761428D01*
X95412857Y-91904285D01*
X95270000Y-92047142D01*
X95055714Y-92118571D01*
X94698571Y-92118571D01*
X96698571Y-91332857D02*
X96198571Y-91332857D01*
X96198571Y-92118571D02*
X96198571Y-90618571D01*
X96912857Y-90618571D01*
X97484285Y-90618571D02*
X97484285Y-91832857D01*
X97555714Y-91975714D01*
X97627142Y-92047142D01*
X97770000Y-92118571D01*
X98055714Y-92118571D01*
X98198571Y-92047142D01*
X98270000Y-91975714D01*
X98341428Y-91832857D01*
X98341428Y-90618571D01*
D11*
X113200000Y-108200000D02*
X113900000Y-108200000D01*
X113900000Y-109400000D02*
X113200000Y-109400000D01*
X99400000Y-99350000D02*
X99400000Y-98650000D01*
X100600000Y-98650000D02*
X100600000Y-99350000D01*
X100650000Y-92100000D02*
X100650000Y-91400000D01*
X101850000Y-91400000D02*
X101850000Y-92100000D01*
X108650000Y-99400000D02*
X109350000Y-99400000D01*
X109350000Y-100600000D02*
X108650000Y-100600000D01*
X113250000Y-102650000D02*
X113950000Y-102650000D01*
X113950000Y-103850000D02*
X113250000Y-103850000D01*
X104350000Y-102650000D02*
X104350000Y-103350000D01*
X103150000Y-103350000D02*
X103150000Y-102650000D01*
X109350000Y-103000000D02*
X109350000Y-102000000D01*
X107650000Y-102000000D02*
X107650000Y-103000000D01*
X114550000Y-94000000D02*
X114550000Y-93000000D01*
X114550000Y-93000000D02*
X112450000Y-93000000D01*
X114550000Y-94000000D02*
X112450000Y-94000000D01*
X99080000Y-93615000D02*
X99080000Y-92285000D01*
X99080000Y-92285000D02*
X96420000Y-92285000D01*
X96420000Y-92285000D02*
X96420000Y-93615000D01*
X96420000Y-93615000D02*
X99080000Y-93615000D01*
X99080000Y-94250000D02*
X99080000Y-94945000D01*
X99080000Y-94945000D02*
X97750000Y-94945000D01*
X110030000Y-109450000D02*
X109520000Y-109450000D01*
X110030000Y-113640000D02*
X110030000Y-113900000D01*
X110030000Y-109450000D02*
X110030000Y-111360000D01*
X102150000Y-109450000D02*
X102660000Y-109450000D01*
X102150000Y-111360000D02*
X102150000Y-109450000D01*
X102150000Y-113900000D02*
X102150000Y-113640000D01*
X98250000Y-96946000D02*
X97250000Y-96946000D01*
X97250000Y-95586000D02*
X98250000Y-95586000D01*
X100820000Y-99500000D02*
X100820000Y-98500000D01*
X102180000Y-98500000D02*
X102180000Y-99500000D01*
X106320000Y-107750000D02*
X106320000Y-106750000D01*
X107680000Y-106750000D02*
X107680000Y-107750000D01*
X104570000Y-107750000D02*
X104570000Y-106750000D01*
X105930000Y-106750000D02*
X105930000Y-107750000D01*
X112750000Y-91320000D02*
X113750000Y-91320000D01*
X113750000Y-92680000D02*
X112750000Y-92680000D01*
X111430000Y-94750000D02*
X111430000Y-95750000D01*
X110070000Y-95750000D02*
X110070000Y-94750000D01*
X111430000Y-92000000D02*
X111430000Y-93000000D01*
X110070000Y-93000000D02*
X110070000Y-92000000D01*
X101430000Y-102250000D02*
X101430000Y-103250000D01*
X100070000Y-103250000D02*
X100070000Y-102250000D01*
X102930000Y-102250000D02*
X102930000Y-103250000D01*
X101570000Y-103250000D02*
X101570000Y-102250000D01*
D12*
X109450000Y-97475000D02*
X109450000Y-93025000D01*
X102550000Y-99000000D02*
X102550000Y-93025000D01*
D11*
X115210000Y-106900000D02*
X115210000Y-105100000D01*
X111990000Y-105100000D02*
X111990000Y-107550000D01*
D12*
X107000000Y-99700000D02*
X107300000Y-100000000D01*
X107300000Y-100000000D02*
X107300000Y-104300000D01*
X104700000Y-99700000D02*
X107000000Y-99700000D01*
X104700000Y-104300000D02*
X107300000Y-104300000D01*
X104700000Y-99700000D02*
X104700000Y-104300000D01*
D11*
X97580000Y-110520000D02*
X97580000Y-102840000D01*
X97580000Y-102840000D02*
X94920000Y-102840000D01*
X94920000Y-102840000D02*
X94920000Y-110520000D01*
X94920000Y-110520000D02*
X97580000Y-110520000D01*
X97580000Y-111790000D02*
X97580000Y-113120000D01*
X97580000Y-113120000D02*
X96250000Y-113120000D01*
X99000000Y-106820000D02*
X100000000Y-106820000D01*
X100000000Y-108180000D02*
X99000000Y-108180000D01*
X99000000Y-108570000D02*
X100000000Y-108570000D01*
X100000000Y-109930000D02*
X99000000Y-109930000D01*
D12*
X116133333Y-109057142D02*
X116085714Y-109104761D01*
X115942857Y-109152380D01*
X115847619Y-109152380D01*
X115704761Y-109104761D01*
X115609523Y-109009523D01*
X115561904Y-108914285D01*
X115514285Y-108723809D01*
X115514285Y-108580952D01*
X115561904Y-108390476D01*
X115609523Y-108295238D01*
X115704761Y-108200000D01*
X115847619Y-108152380D01*
X115942857Y-108152380D01*
X116085714Y-108200000D01*
X116133333Y-108247619D01*
X116514285Y-108247619D02*
X116561904Y-108200000D01*
X116657142Y-108152380D01*
X116895238Y-108152380D01*
X116990476Y-108200000D01*
X117038095Y-108247619D01*
X117085714Y-108342857D01*
X117085714Y-108438095D01*
X117038095Y-108580952D01*
X116466666Y-109152380D01*
X117085714Y-109152380D01*
X98233333Y-98557142D02*
X98185714Y-98604761D01*
X98042857Y-98652380D01*
X97947619Y-98652380D01*
X97804761Y-98604761D01*
X97709523Y-98509523D01*
X97661904Y-98414285D01*
X97614285Y-98223809D01*
X97614285Y-98080952D01*
X97661904Y-97890476D01*
X97709523Y-97795238D01*
X97804761Y-97700000D01*
X97947619Y-97652380D01*
X98042857Y-97652380D01*
X98185714Y-97700000D01*
X98233333Y-97747619D01*
X99185714Y-98652380D02*
X98614285Y-98652380D01*
X98900000Y-98652380D02*
X98900000Y-97652380D01*
X98804761Y-97795238D01*
X98709523Y-97890476D01*
X98614285Y-97938095D01*
X99655333Y-91543142D02*
X99607714Y-91590761D01*
X99464857Y-91638380D01*
X99369619Y-91638380D01*
X99226761Y-91590761D01*
X99131523Y-91495523D01*
X99083904Y-91400285D01*
X99036285Y-91209809D01*
X99036285Y-91066952D01*
X99083904Y-90876476D01*
X99131523Y-90781238D01*
X99226761Y-90686000D01*
X99369619Y-90638380D01*
X99464857Y-90638380D01*
X99607714Y-90686000D01*
X99655333Y-90733619D01*
X99988666Y-90638380D02*
X100607714Y-90638380D01*
X100274380Y-91019333D01*
X100417238Y-91019333D01*
X100512476Y-91066952D01*
X100560095Y-91114571D01*
X100607714Y-91209809D01*
X100607714Y-91447904D01*
X100560095Y-91543142D01*
X100512476Y-91590761D01*
X100417238Y-91638380D01*
X100131523Y-91638380D01*
X100036285Y-91590761D01*
X99988666Y-91543142D01*
X111333333Y-100357142D02*
X111285714Y-100404761D01*
X111142857Y-100452380D01*
X111047619Y-100452380D01*
X110904761Y-100404761D01*
X110809523Y-100309523D01*
X110761904Y-100214285D01*
X110714285Y-100023809D01*
X110714285Y-99880952D01*
X110761904Y-99690476D01*
X110809523Y-99595238D01*
X110904761Y-99500000D01*
X111047619Y-99452380D01*
X111142857Y-99452380D01*
X111285714Y-99500000D01*
X111333333Y-99547619D01*
X112190476Y-99785714D02*
X112190476Y-100452380D01*
X111952380Y-99404761D02*
X111714285Y-100119047D01*
X112333333Y-100119047D01*
X116233333Y-103607142D02*
X116185714Y-103654761D01*
X116042857Y-103702380D01*
X115947619Y-103702380D01*
X115804761Y-103654761D01*
X115709523Y-103559523D01*
X115661904Y-103464285D01*
X115614285Y-103273809D01*
X115614285Y-103130952D01*
X115661904Y-102940476D01*
X115709523Y-102845238D01*
X115804761Y-102750000D01*
X115947619Y-102702380D01*
X116042857Y-102702380D01*
X116185714Y-102750000D01*
X116233333Y-102797619D01*
X117138095Y-102702380D02*
X116661904Y-102702380D01*
X116614285Y-103178571D01*
X116661904Y-103130952D01*
X116757142Y-103083333D01*
X116995238Y-103083333D01*
X117090476Y-103130952D01*
X117138095Y-103178571D01*
X117185714Y-103273809D01*
X117185714Y-103511904D01*
X117138095Y-103607142D01*
X117090476Y-103654761D01*
X116995238Y-103702380D01*
X116757142Y-103702380D01*
X116661904Y-103654761D01*
X116614285Y-103607142D01*
X102933333Y-105657142D02*
X102885714Y-105704761D01*
X102742857Y-105752380D01*
X102647619Y-105752380D01*
X102504761Y-105704761D01*
X102409523Y-105609523D01*
X102361904Y-105514285D01*
X102314285Y-105323809D01*
X102314285Y-105180952D01*
X102361904Y-104990476D01*
X102409523Y-104895238D01*
X102504761Y-104800000D01*
X102647619Y-104752380D01*
X102742857Y-104752380D01*
X102885714Y-104800000D01*
X102933333Y-104847619D01*
X103790476Y-104752380D02*
X103600000Y-104752380D01*
X103504761Y-104800000D01*
X103457142Y-104847619D01*
X103361904Y-104990476D01*
X103314285Y-105180952D01*
X103314285Y-105561904D01*
X103361904Y-105657142D01*
X103409523Y-105704761D01*
X103504761Y-105752380D01*
X103695238Y-105752380D01*
X103790476Y-105704761D01*
X103838095Y-105657142D01*
X103885714Y-105561904D01*
X103885714Y-105323809D01*
X103838095Y-105228571D01*
X103790476Y-105180952D01*
X103695238Y-105133333D01*
X103504761Y-105133333D01*
X103409523Y-105180952D01*
X103361904Y-105228571D01*
X103314285Y-105323809D01*
X110333333Y-102607142D02*
X110285714Y-102654761D01*
X110142857Y-102702380D01*
X110047619Y-102702380D01*
X109904761Y-102654761D01*
X109809523Y-102559523D01*
X109761904Y-102464285D01*
X109714285Y-102273809D01*
X109714285Y-102130952D01*
X109761904Y-101940476D01*
X109809523Y-101845238D01*
X109904761Y-101750000D01*
X110047619Y-101702380D01*
X110142857Y-101702380D01*
X110285714Y-101750000D01*
X110333333Y-101797619D01*
X110666666Y-101702380D02*
X111333333Y-101702380D01*
X110904761Y-102702380D01*
X114961904Y-93952380D02*
X114961904Y-92952380D01*
X115200000Y-92952380D01*
X115342857Y-93000000D01*
X115438095Y-93095238D01*
X115485714Y-93190476D01*
X115533333Y-93380952D01*
X115533333Y-93523809D01*
X115485714Y-93714285D01*
X115438095Y-93809523D01*
X115342857Y-93904761D01*
X115200000Y-93952380D01*
X114961904Y-93952380D01*
X115914285Y-93047619D02*
X115961904Y-93000000D01*
X116057142Y-92952380D01*
X116295238Y-92952380D01*
X116390476Y-93000000D01*
X116438095Y-93047619D01*
X116485714Y-93142857D01*
X116485714Y-93238095D01*
X116438095Y-93380952D01*
X115866666Y-93952380D01*
X116485714Y-93952380D01*
X95170666Y-93686380D02*
X95170666Y-94400666D01*
X95123047Y-94543523D01*
X95027809Y-94638761D01*
X94884952Y-94686380D01*
X94789714Y-94686380D01*
X96170666Y-94686380D02*
X95599238Y-94686380D01*
X95884952Y-94686380D02*
X95884952Y-93686380D01*
X95789714Y-93829238D01*
X95694476Y-93924476D01*
X95599238Y-93972095D01*
X111466666Y-112052380D02*
X111466666Y-112766666D01*
X111419047Y-112909523D01*
X111323809Y-113004761D01*
X111180952Y-113052380D01*
X111085714Y-113052380D01*
X111895238Y-112147619D02*
X111942857Y-112100000D01*
X112038095Y-112052380D01*
X112276190Y-112052380D01*
X112371428Y-112100000D01*
X112419047Y-112147619D01*
X112466666Y-112242857D01*
X112466666Y-112338095D01*
X112419047Y-112480952D01*
X111847619Y-113052380D01*
X112466666Y-113052380D01*
X95333333Y-96718380D02*
X95000000Y-96242190D01*
X94761904Y-96718380D02*
X94761904Y-95718380D01*
X95142857Y-95718380D01*
X95238095Y-95766000D01*
X95285714Y-95813619D01*
X95333333Y-95908857D01*
X95333333Y-96051714D01*
X95285714Y-96146952D01*
X95238095Y-96194571D01*
X95142857Y-96242190D01*
X94761904Y-96242190D01*
X96285714Y-96718380D02*
X95714285Y-96718380D01*
X96000000Y-96718380D02*
X96000000Y-95718380D01*
X95904761Y-95861238D01*
X95809523Y-95956476D01*
X95714285Y-96004095D01*
X101233333Y-97252380D02*
X100900000Y-96776190D01*
X100661904Y-97252380D02*
X100661904Y-96252380D01*
X101042857Y-96252380D01*
X101138095Y-96300000D01*
X101185714Y-96347619D01*
X101233333Y-96442857D01*
X101233333Y-96585714D01*
X101185714Y-96680952D01*
X101138095Y-96728571D01*
X101042857Y-96776190D01*
X100661904Y-96776190D01*
X101614285Y-96347619D02*
X101661904Y-96300000D01*
X101757142Y-96252380D01*
X101995238Y-96252380D01*
X102090476Y-96300000D01*
X102138095Y-96347619D01*
X102185714Y-96442857D01*
X102185714Y-96538095D01*
X102138095Y-96680952D01*
X101566666Y-97252380D01*
X102185714Y-97252380D01*
X107133333Y-105752380D02*
X106800000Y-105276190D01*
X106561904Y-105752380D02*
X106561904Y-104752380D01*
X106942857Y-104752380D01*
X107038095Y-104800000D01*
X107085714Y-104847619D01*
X107133333Y-104942857D01*
X107133333Y-105085714D01*
X107085714Y-105180952D01*
X107038095Y-105228571D01*
X106942857Y-105276190D01*
X106561904Y-105276190D01*
X107466666Y-104752380D02*
X108085714Y-104752380D01*
X107752380Y-105133333D01*
X107895238Y-105133333D01*
X107990476Y-105180952D01*
X108038095Y-105228571D01*
X108085714Y-105323809D01*
X108085714Y-105561904D01*
X108038095Y-105657142D01*
X107990476Y-105704761D01*
X107895238Y-105752380D01*
X107609523Y-105752380D01*
X107514285Y-105704761D01*
X107466666Y-105657142D01*
X105033333Y-105702380D02*
X104700000Y-105226190D01*
X104461904Y-105702380D02*
X104461904Y-104702380D01*
X104842857Y-104702380D01*
X104938095Y-104750000D01*
X104985714Y-104797619D01*
X105033333Y-104892857D01*
X105033333Y-105035714D01*
X104985714Y-105130952D01*
X104938095Y-105178571D01*
X104842857Y-105226190D01*
X104461904Y-105226190D01*
X105890476Y-105035714D02*
X105890476Y-105702380D01*
X105652380Y-104654761D02*
X105414285Y-105369047D01*
X106033333Y-105369047D01*
X115533333Y-92452380D02*
X115200000Y-91976190D01*
X114961904Y-92452380D02*
X114961904Y-91452380D01*
X115342857Y-91452380D01*
X115438095Y-91500000D01*
X115485714Y-91547619D01*
X115533333Y-91642857D01*
X115533333Y-91785714D01*
X115485714Y-91880952D01*
X115438095Y-91928571D01*
X115342857Y-91976190D01*
X114961904Y-91976190D01*
X116390476Y-91452380D02*
X116200000Y-91452380D01*
X116104761Y-91500000D01*
X116057142Y-91547619D01*
X115961904Y-91690476D01*
X115914285Y-91880952D01*
X115914285Y-92261904D01*
X115961904Y-92357142D01*
X116009523Y-92404761D01*
X116104761Y-92452380D01*
X116295238Y-92452380D01*
X116390476Y-92404761D01*
X116438095Y-92357142D01*
X116485714Y-92261904D01*
X116485714Y-92023809D01*
X116438095Y-91928571D01*
X116390476Y-91880952D01*
X116295238Y-91833333D01*
X116104761Y-91833333D01*
X116009523Y-91880952D01*
X115961904Y-91928571D01*
X115914285Y-92023809D01*
X112333333Y-95852380D02*
X112000000Y-95376190D01*
X111761904Y-95852380D02*
X111761904Y-94852380D01*
X112142857Y-94852380D01*
X112238095Y-94900000D01*
X112285714Y-94947619D01*
X112333333Y-95042857D01*
X112333333Y-95185714D01*
X112285714Y-95280952D01*
X112238095Y-95328571D01*
X112142857Y-95376190D01*
X111761904Y-95376190D01*
X112666666Y-94852380D02*
X113333333Y-94852380D01*
X112904761Y-95852380D01*
X110533333Y-91202380D02*
X110200000Y-90726190D01*
X109961904Y-91202380D02*
X109961904Y-90202380D01*
X110342857Y-90202380D01*
X110438095Y-90250000D01*
X110485714Y-90297619D01*
X110533333Y-90392857D01*
X110533333Y-90535714D01*
X110485714Y-90630952D01*
X110438095Y-90678571D01*
X110342857Y-90726190D01*
X109961904Y-90726190D01*
X111104761Y-90630952D02*
X111009523Y-90583333D01*
X110961904Y-90535714D01*
X110914285Y-90440476D01*
X110914285Y-90392857D01*
X110961904Y-90297619D01*
X111009523Y-90250000D01*
X111104761Y-90202380D01*
X111295238Y-90202380D01*
X111390476Y-90250000D01*
X111438095Y-90297619D01*
X111485714Y-90392857D01*
X111485714Y-90440476D01*
X111438095Y-90535714D01*
X111390476Y-90583333D01*
X111295238Y-90630952D01*
X111104761Y-90630952D01*
X111009523Y-90678571D01*
X110961904Y-90726190D01*
X110914285Y-90821428D01*
X110914285Y-91011904D01*
X110961904Y-91107142D01*
X111009523Y-91154761D01*
X111104761Y-91202380D01*
X111295238Y-91202380D01*
X111390476Y-91154761D01*
X111438095Y-91107142D01*
X111485714Y-91011904D01*
X111485714Y-90821428D01*
X111438095Y-90726190D01*
X111390476Y-90678571D01*
X111295238Y-90630952D01*
X98833333Y-103052380D02*
X98500000Y-102576190D01*
X98261904Y-103052380D02*
X98261904Y-102052380D01*
X98642857Y-102052380D01*
X98738095Y-102100000D01*
X98785714Y-102147619D01*
X98833333Y-102242857D01*
X98833333Y-102385714D01*
X98785714Y-102480952D01*
X98738095Y-102528571D01*
X98642857Y-102576190D01*
X98261904Y-102576190D01*
X99309523Y-103052380D02*
X99500000Y-103052380D01*
X99595238Y-103004761D01*
X99642857Y-102957142D01*
X99738095Y-102814285D01*
X99785714Y-102623809D01*
X99785714Y-102242857D01*
X99738095Y-102147619D01*
X99690476Y-102100000D01*
X99595238Y-102052380D01*
X99404761Y-102052380D01*
X99309523Y-102100000D01*
X99261904Y-102147619D01*
X99214285Y-102242857D01*
X99214285Y-102480952D01*
X99261904Y-102576190D01*
X99309523Y-102623809D01*
X99404761Y-102671428D01*
X99595238Y-102671428D01*
X99690476Y-102623809D01*
X99738095Y-102576190D01*
X99785714Y-102480952D01*
X101257142Y-101352380D02*
X100923809Y-100876190D01*
X100685714Y-101352380D02*
X100685714Y-100352380D01*
X101066666Y-100352380D01*
X101161904Y-100400000D01*
X101209523Y-100447619D01*
X101257142Y-100542857D01*
X101257142Y-100685714D01*
X101209523Y-100780952D01*
X101161904Y-100828571D01*
X101066666Y-100876190D01*
X100685714Y-100876190D01*
X102209523Y-101352380D02*
X101638095Y-101352380D01*
X101923809Y-101352380D02*
X101923809Y-100352380D01*
X101828571Y-100495238D01*
X101733333Y-100590476D01*
X101638095Y-100638095D01*
X102828571Y-100352380D02*
X102923809Y-100352380D01*
X103019047Y-100400000D01*
X103066666Y-100447619D01*
X103114285Y-100542857D01*
X103161904Y-100733333D01*
X103161904Y-100971428D01*
X103114285Y-101161904D01*
X103066666Y-101257142D01*
X103019047Y-101304761D01*
X102923809Y-101352380D01*
X102828571Y-101352380D01*
X102733333Y-101304761D01*
X102685714Y-101257142D01*
X102638095Y-101161904D01*
X102590476Y-100971428D01*
X102590476Y-100733333D01*
X102638095Y-100542857D01*
X102685714Y-100447619D01*
X102733333Y-100400000D01*
X102828571Y-100352380D01*
X100738095Y-93952380D02*
X100738095Y-94761904D01*
X100785714Y-94857142D01*
X100833333Y-94904761D01*
X100928571Y-94952380D01*
X101119047Y-94952380D01*
X101214285Y-94904761D01*
X101261904Y-94857142D01*
X101309523Y-94761904D01*
X101309523Y-93952380D01*
X102309523Y-94952380D02*
X101738095Y-94952380D01*
X102023809Y-94952380D02*
X102023809Y-93952380D01*
X101928571Y-94095238D01*
X101833333Y-94190476D01*
X101738095Y-94238095D01*
X115588095Y-105552380D02*
X115588095Y-106361904D01*
X115635714Y-106457142D01*
X115683333Y-106504761D01*
X115778571Y-106552380D01*
X115969047Y-106552380D01*
X116064285Y-106504761D01*
X116111904Y-106457142D01*
X116159523Y-106361904D01*
X116159523Y-105552380D01*
X116588095Y-105647619D02*
X116635714Y-105600000D01*
X116730952Y-105552380D01*
X116969047Y-105552380D01*
X117064285Y-105600000D01*
X117111904Y-105647619D01*
X117159523Y-105742857D01*
X117159523Y-105838095D01*
X117111904Y-105980952D01*
X116540476Y-106552380D01*
X117159523Y-106552380D01*
X98566666Y-112152380D02*
X98566666Y-112866666D01*
X98519047Y-113009523D01*
X98423809Y-113104761D01*
X98280952Y-113152380D01*
X98185714Y-113152380D01*
X99471428Y-112485714D02*
X99471428Y-113152380D01*
X99233333Y-112104761D02*
X98995238Y-112819047D01*
X99614285Y-112819047D01*
X98957142Y-106552380D02*
X98623809Y-106076190D01*
X98385714Y-106552380D02*
X98385714Y-105552380D01*
X98766666Y-105552380D01*
X98861904Y-105600000D01*
X98909523Y-105647619D01*
X98957142Y-105742857D01*
X98957142Y-105885714D01*
X98909523Y-105980952D01*
X98861904Y-106028571D01*
X98766666Y-106076190D01*
X98385714Y-106076190D01*
X99909523Y-106552380D02*
X99338095Y-106552380D01*
X99623809Y-106552380D02*
X99623809Y-105552380D01*
X99528571Y-105695238D01*
X99433333Y-105790476D01*
X99338095Y-105838095D01*
X100861904Y-106552380D02*
X100290476Y-106552380D01*
X100576190Y-106552380D02*
X100576190Y-105552380D01*
X100480952Y-105695238D01*
X100385714Y-105790476D01*
X100290476Y-105838095D01*
X98857142Y-111252380D02*
X98523809Y-110776190D01*
X98285714Y-111252380D02*
X98285714Y-110252380D01*
X98666666Y-110252380D01*
X98761904Y-110300000D01*
X98809523Y-110347619D01*
X98857142Y-110442857D01*
X98857142Y-110585714D01*
X98809523Y-110680952D01*
X98761904Y-110728571D01*
X98666666Y-110776190D01*
X98285714Y-110776190D01*
X99809523Y-111252380D02*
X99238095Y-111252380D01*
X99523809Y-111252380D02*
X99523809Y-110252380D01*
X99428571Y-110395238D01*
X99333333Y-110490476D01*
X99238095Y-110538095D01*
X100190476Y-110347619D02*
X100238095Y-110300000D01*
X100333333Y-110252380D01*
X100571428Y-110252380D01*
X100666666Y-110300000D01*
X100714285Y-110347619D01*
X100761904Y-110442857D01*
X100761904Y-110538095D01*
X100714285Y-110680952D01*
X100142857Y-111252380D01*
X100761904Y-111252380D01*
M02*
